UniversLTStd.ufo
<glyph name="exclam" format="1">
  <advance width="389"/>
  <unicode hex="0021"/>
  <outline>
    <contour>
      <point x="262" y="721" type="line"/>
      <point x="240" y="165" type="line"/>
      <point x="169" y="165" type="line"/>
      <point x="150" y="721" type="line"/>
    </contour>
    <contour>
      <point x="149" y="0" type="line"/>
      <point x="149" y="100" type="line"/>
      <point x="255" y="100" type="line"/>
      <point x="255" y="0" type="line"/>
    </contour>
  </outline>
</glyph>
<glyph name="dollar" format="1">
  <advance width="556"/>
  <unicode hex="0024"/>
  <outline>
    <contour>
      <point x="253" y="775" type="line"/>
      <point x="304" y="775" type="line"/>
      <point x="304" y="694" type="line"/>
      <point x="349" y="693"/>
      <point x="516" y="687"/>
      <point x="520" y="530" type="curve"/>
      <point x="415" y="530" type="line"/>
      <point x="413" y="594"/>
      <point x="362" y="611"/>
      <point x="303" y="613" type="curve"/>
      <point x="303" y="404" type="line"/>
      <point x="405" y="376"/>
      <point x="530" y="338"/>
      <point x="530" y="198" type="curve" smooth="yes"/>
      <point x="530" y="100"/>
      <point x="466" y="50"/>
      <point x="440" y="33" type="curve" smooth="yes"/>
      <point x="394" y="3"/>
      <point x="336" y="-2"/>
      <point x="301" y="-5" type="curve"/>
      <point x="301" y="-104" type="line"/>
      <point x="250" y="-104" type="line"/>
      <point x="250" y="-5" type="line"/>
      <point x="206" y="-4"/>
      <point x="144" y="-3"/>
      <point x="84" y="51" type="curve" smooth="yes"/>
      <point x="32" y="98"/>
      <point x="28" y="147"/>
      <point x="28" y="190" type="curve"/>
      <point x="130" y="190" type="line"/>
      <point x="128" y="146"/>
      <point x="154" y="82"/>
      <point x="250" y="80" type="curve"/>
      <point x="250" y="314" type="line"/>
      <point x="86" y="363"/>
      <point x="41" y="405"/>
      <point x="41" y="512" type="curve" smooth="yes"/>
      <point x="41" y="595"/>
      <point x="91" y="640"/>
      <point x="126" y="662" type="curve" smooth="yes"/>
      <point x="172" y="690"/>
      <point x="226" y="692"/>
      <point x="253" y="693" type="curve"/>
    </contour>
    <contour>
      <point x="252" y="419" type="curve"/>
      <point x="252" y="613" type="line"/>
      <point x="144" y="602"/>
      <point x="140" y="537"/>
      <point x="140" y="519" type="curve" smooth="yes"/>
      <point x="140" y="452"/>
      <point x="203" y="433"/>
    </contour>
    <contour>
      <point x="303" y="301" type="curve"/>
      <point x="303" y="80" type="line"/>
      <point x="390" y="81"/>
      <point x="426" y="137"/>
      <point x="426" y="186" type="curve" smooth="yes"/>
      <point x="426" y="261"/>
      <point x="354" y="285"/>
    </contour>
  </outline>
</glyph>
<glyph name="percent" format="1">
  <advance width="889"/>
  <unicode hex="0025"/>
  <outline>
    <contour>
      <point x="222" y="711" type="curve" smooth="yes"/>
      <point x="337" y="711"/>
      <point x="377" y="625"/>
      <point x="377" y="534" type="curve" smooth="yes"/>
      <point x="377" y="410"/>
      <point x="304" y="353"/>
      <point x="213" y="353" type="curve" smooth="yes"/>
      <point x="126" y="353"/>
      <point x="52" y="405"/>
      <point x="52" y="528" type="curve" smooth="yes"/>
      <point x="52" y="633"/>
      <point x="109" y="711"/>
    </contour>
    <contour>
      <point x="215" y="411" type="curve" smooth="yes"/>
      <point x="298" y="411"/>
      <point x="298" y="510"/>
      <point x="298" y="530" type="curve" smooth="yes"/>
      <point x="298" y="579"/>
      <point x="286" y="651"/>
      <point x="215" y="651" type="curve" smooth="yes"/>
      <point x="129" y="651"/>
      <point x="129" y="553"/>
      <point x="129" y="529" type="curve" smooth="yes"/>
      <point x="129" y="506"/>
      <point x="129" y="411"/>
    </contour>
    <contour>
      <point x="675" y="346" type="curve" smooth="yes"/>
      <point x="702" y="346"/>
      <point x="756" y="341"/>
      <point x="795" y="298" type="curve" smooth="yes"/>
      <point x="813" y="278"/>
      <point x="836" y="246"/>
      <point x="836" y="171" type="curve" smooth="yes"/>
      <point x="836" y="62"/>
      <point x="783" y="-12"/>
      <point x="675" y="-12" type="curve" smooth="yes"/>
      <point x="547" y="-12"/>
      <point x="511" y="83"/>
      <point x="511" y="166" type="curve" smooth="yes"/>
      <point x="511" y="287"/>
      <point x="586" y="346"/>
    </contour>
    <contour>
      <point x="674" y="47" type="curve" smooth="yes"/>
      <point x="754" y="47"/>
      <point x="760" y="133"/>
      <point x="760" y="169" type="curve" smooth="yes"/>
      <point x="760" y="200"/>
      <point x="754" y="290"/>
      <point x="676" y="290" type="curve" smooth="yes"/>
      <point x="590" y="290"/>
      <point x="590" y="186"/>
      <point x="590" y="156" type="curve" smooth="yes"/>
      <point x="590" y="121"/>
      <point x="598" y="47"/>
    </contour>
    <contour>
      <point x="251" y="-39" type="line"/>
      <point x="185" y="-39" type="line"/>
      <point x="626" y="731" type="line"/>
      <point x="692" y="731" type="line"/>
    </contour>
  </outline>
</glyph>
<glyph name="ampersand" format="1">
  <advance width="778"/>
  <unicode hex="0026"/>
  <outline>
    <contour>
      <point x="595" y="468" type="curve"/>
      <point x="692" y="468" type="line"/>
      <point x="691" y="328"/>
      <point x="671" y="256"/>
      <point x="604" y="167" type="curve"/>
      <point x="776" y="0" type="line"/>
      <point x="636" y="0" type="line"/>
      <point x="542" y="89" type="line"/>
      <point x="475" y="23"/>
      <point x="391" y="-17"/>
      <point x="292" y="-17" type="curve" smooth="yes"/>
      <point x="137" y="-17"/>
      <point x="49" y="76"/>
      <point x="49" y="191" type="curve" smooth="yes"/>
      <point x="49" y="304"/>
      <point x="126" y="365"/>
      <point x="201" y="421" type="curve"/>
      <point x="171" y="449"/>
      <point x="118" y="501"/>
      <point x="118" y="587" type="curve" smooth="yes"/>
      <point x="118" y="681"/>
      <point x="187" y="746"/>
      <point x="312" y="746" type="curve" smooth="yes"/>
      <point x="404" y="746"/>
      <point x="439" y="722"/>
      <point x="462" y="701" type="curve" smooth="yes"/>
      <point x="489" y="676"/>
      <point x="505" y="640"/>
      <point x="505" y="602" type="curve" smooth="yes"/>
      <point x="505" y="496"/>
      <point x="407" y="432"/>
      <point x="365" y="404" type="curve"/>
      <point x="542" y="229" type="line"/>
      <point x="579" y="291"/>
      <point x="595" y="344"/>
    </contour>
    <contour>
      <point x="301" y="469" type="curve"/>
      <point x="326" y="486"/>
      <point x="398" y="535"/>
      <point x="398" y="598" type="curve" smooth="yes"/>
      <point x="398" y="627"/>
      <point x="375" y="666"/>
      <point x="315" y="666" type="curve" smooth="yes"/>
      <point x="261" y="666"/>
      <point x="225" y="630"/>
      <point x="225" y="592" type="curve" smooth="yes"/>
      <point x="225" y="551"/>
      <point x="257" y="512"/>
    </contour>
    <contour>
      <point x="477" y="149" type="curve"/>
      <point x="265" y="358" type="line"/>
      <point x="182" y="297"/>
      <point x="154" y="248"/>
      <point x="154" y="194" type="curve" smooth="yes"/>
      <point x="154" y="94"/>
      <point x="247" y="67"/>
      <point x="307" y="67" type="curve" smooth="yes"/>
      <point x="398" y="67"/>
      <point x="451" y="122"/>
    </contour>
  </outline>
</glyph>
<glyph name="parenleft" format="1">
  <advance width="333"/>
  <unicode hex="0028"/>
  <outline>
    <contour>
      <point x="257" y="-123" type="curve"/>
      <point x="192" y="-123" type="line"/>
      <point x="138" y="10"/>
      <point x="73" y="176"/>
      <point x="73" y="322" type="curve" smooth="yes"/>
      <point x="73" y="401"/>
      <point x="91" y="479"/>
      <point x="114" y="555" type="curve" smooth="yes"/>
      <point x="142" y="645"/>
      <point x="168" y="709"/>
      <point x="185" y="752" type="curve"/>
      <point x="251" y="752" type="line"/>
      <point x="235" y="703"/>
      <point x="213" y="635"/>
      <point x="192" y="540" type="curve" smooth="yes"/>
      <point x="171" y="448"/>
      <point x="164" y="386"/>
      <point x="164" y="324" type="curve" smooth="yes"/>
      <point x="164" y="182"/>
      <point x="199" y="67"/>
    </contour>
  </outline>
</glyph>
<glyph name="parenright" format="1">
  <advance width="333"/>
  <unicode hex="0029"/>
  <outline>
    <contour>
      <point x="76" y="752" type="curve"/>
      <point x="141" y="752" type="line"/>
      <point x="195" y="619"/>
      <point x="260" y="454"/>
      <point x="260" y="308" type="curve" smooth="yes"/>
      <point x="260" y="229"/>
      <point x="242" y="151"/>
      <point x="219" y="75" type="curve" smooth="yes"/>
      <point x="191" y="-15"/>
      <point x="165" y="-80"/>
      <point x="148" y="-123" type="curve"/>
      <point x="82" y="-123" type="line"/>
      <point x="98" y="-73"/>
      <point x="120" y="-5"/>
      <point x="141" y="90" type="curve" smooth="yes"/>
      <point x="162" y="181"/>
      <point x="169" y="244"/>
      <point x="169" y="306" type="curve" smooth="yes"/>
      <point x="169" y="447"/>
      <point x="134" y="562"/>
    </contour>
  </outline>
</glyph>
<glyph name="asterisk" format="1">
  <advance width="556"/>
  <unicode hex="002A"/>
  <outline>
    <contour>
      <point x="480" y="563" type="line"/>
      <point x="480" y="488" type="line"/>
      <point x="308" y="507" type="line"/>
      <point x="410" y="369" type="line"/>
      <point x="345" y="329" type="line"/>
      <point x="278" y="487" type="line"/>
      <point x="206" y="331" type="line"/>
      <point x="138" y="368" type="line"/>
      <point x="244" y="507" type="line"/>
      <point x="78" y="493" type="line"/>
      <point x="78" y="566" type="line"/>
      <point x="247" y="544" type="line"/>
      <point x="145" y="684" type="line"/>
      <point x="211" y="720" type="line"/>
      <point x="278" y="565" type="line"/>
      <point x="347" y="721" type="line"/>
      <point x="414" y="684" type="line"/>
      <point x="309" y="544" type="line"/>
    </contour>
  </outline>
</glyph>
<glyph name="comma" format="1">
  <advance width="278"/>
  <unicode hex="002C"/>
  <outline>
    <contour>
      <point x="113" y="120" type="line"/>
      <point x="229" y="120" type="line"/>
      <point x="117" y="-126" type="line"/>
      <point x="49" y="-126" type="line"/>
    </contour>
  </outline>
</glyph>
<glyph name="hyphen" format="1">
  <advance width="333"/>
  <unicode hex="002D"/>
  <outline>
    <contour>
      <point x="42" y="225" type="line"/>
      <point x="42" y="301" type="line"/>
      <point x="293" y="301" type="line"/>
      <point x="293" y="225" type="line"/>
    </contour>
  </outline>
</glyph>
<glyph name="one" format="1">
  <advance width="556"/>
  <unicode hex="0031"/>
  <outline>
    <contour>
      <point x="271" y="0" type="line"/>
      <point x="271" y="583" type="line"/>
      <point x="228" y="547"/>
      <point x="159" y="506"/>
      <point x="110" y="483" type="curve"/>
      <point x="110" y="583" type="line"/>
      <point x="175" y="617"/>
      <point x="239" y="659"/>
      <point x="278" y="692" type="curve"/>
      <point x="367" y="692" type="line"/>
      <point x="367" y="0" type="line"/>
    </contour>
  </outline>
</glyph>
<glyph name="five" format="1">
  <advance width="556"/>
  <unicode hex="0035"/>
  <outline>
    <contour>
      <point x="56" y="164" type="curve"/>
      <point x="160" y="164" type="line"/>
      <point x="162" y="94"/>
      <point x="223" y="66"/>
      <point x="275" y="66" type="curve" smooth="yes"/>
      <point x="396" y="66"/>
      <point x="412" y="180"/>
      <point x="412" y="225" type="curve" smooth="yes"/>
      <point x="412" y="319"/>
      <point x="361" y="374"/>
      <point x="281" y="374" type="curve" smooth="yes"/>
      <point x="241" y="374"/>
      <point x="209" y="359"/>
      <point x="188" y="338" type="curve" smooth="yes"/>
      <point x="167" y="317"/>
      <point x="161" y="296"/>
      <point x="156" y="280" type="curve"/>
      <point x="65" y="280" type="line"/>
      <point x="83" y="692" type="line"/>
      <point x="472" y="692" type="line"/>
      <point x="472" y="611" type="line"/>
      <point x="169" y="611" type="line"/>
      <point x="156" y="387" type="line"/>
      <point x="177" y="408"/>
      <point x="221" y="451"/>
      <point x="302" y="451" type="curve" smooth="yes"/>
      <point x="441" y="451"/>
      <point x="509" y="342"/>
      <point x="509" y="223" type="curve" smooth="yes"/>
      <point x="509" y="87"/>
      <point x="413" y="-16"/>
      <point x="262" y="-16" type="curve" smooth="yes"/>
      <point x="150" y="-16"/>
      <point x="61" y="46"/>
    </contour>
  </outline>
</glyph>
<glyph name="eight" format="1">
  <advance width="556"/>
  <unicode hex="0038"/>
  <outline>
    <contour>
      <point x="190" y="365" type="curve"/>
      <point x="98" y="385"/>
      <point x="51" y="450"/>
      <point x="51" y="519" type="curve" smooth="yes"/>
      <point x="51" y="581"/>
      <point x="93" y="708"/>
      <point x="275" y="708" type="curve" smooth="yes"/>
      <point x="421" y="708"/>
      <point x="505" y="629"/>
      <point x="505" y="523" type="curve" smooth="yes"/>
      <point x="505" y="455"/>
      <point x="461" y="384"/>
      <point x="364" y="366" type="curve"/>
      <point x="405" y="355"/>
      <point x="515" y="325"/>
      <point x="515" y="191" type="curve" smooth="yes"/>
      <point x="515" y="96"/>
      <point x="449" y="-12"/>
      <point x="277" y="-12" type="curve" smooth="yes"/>
      <point x="218" y="-12"/>
      <point x="148" y="0"/>
      <point x="98" y="46" type="curve" smooth="yes"/>
      <point x="61" y="80"/>
      <point x="37" y="132"/>
      <point x="37" y="185" type="curve" smooth="yes"/>
      <point x="37" y="231"/>
      <point x="55" y="279"/>
      <point x="90" y="312" type="curve" smooth="yes"/>
      <point x="123" y="345"/>
      <point x="159" y="355"/>
    </contour>
    <contour>
      <point x="409" y="521" type="curve" smooth="yes"/>
      <point x="409" y="584"/>
      <point x="362" y="634"/>
      <point x="279" y="634" type="curve" smooth="yes"/>
      <point x="205" y="634"/>
      <point x="148" y="590"/>
      <point x="148" y="521" type="curve" smooth="yes"/>
      <point x="148" y="454"/>
      <point x="204" y="409"/>
      <point x="276" y="409" type="curve" smooth="yes"/>
      <point x="352" y="409"/>
      <point x="409" y="453"/>
    </contour>
    <contour>
      <point x="138" y="194" type="curve" smooth="yes"/>
      <point x="138" y="140"/>
      <point x="174" y="67"/>
      <point x="277" y="67" type="curve" smooth="yes"/>
      <point x="388" y="67"/>
      <point x="415" y="145"/>
      <point x="415" y="197" type="curve" smooth="yes"/>
      <point x="415" y="274"/>
      <point x="358" y="324"/>
      <point x="279" y="324" type="curve" smooth="yes"/>
      <point x="194" y="324"/>
      <point x="138" y="267"/>
    </contour>
  </outline>
</glyph>
<glyph name="colon" format="1">
  <advance width="278"/>
  <unicode hex="003A"/>
  <outline>
    <contour>
      <point x="83" y="389" type="line"/>
      <point x="83" y="507" type="line"/>
      <point x="194" y="507" type="line"/>
      <point x="194" y="389" type="line"/>
    </contour>
    <contour>
      <point x="83" y="0" type="line"/>
      <point x="83" y="118" type="line"/>
      <point x="194" y="118" type="line"/>
      <point x="194" y="0" type="line"/>
    </contour>
  </outline>
</glyph>
<glyph name="equal" format="1">
  <advance width="584"/>
  <unicode hex="003D"/>
  <outline>
    <contour>
      <point x="37" y="314" type="line"/>
      <point x="37" y="391" type="line"/>
      <point x="547" y="391" type="line"/>
      <point x="547" y="314" type="line"/>
    </contour>
    <contour>
      <point x="37" y="111" type="line"/>
      <point x="37" y="189" type="line"/>
      <point x="547" y="189" type="line"/>
      <point x="547" y="111" type="line"/>
    </contour>
  </outline>
</glyph>
<glyph name="D" format="1">
  <advance width="722"/>
  <unicode hex="0044"/>
  <outline>
    <contour>
      <point x="88" y="0" type="line"/>
      <point x="88" y="722" type="line"/>
      <point x="297" y="722" type="line" smooth="yes"/>
      <point x="394" y="722"/>
      <point x="508" y="722"/>
      <point x="588" y="628" type="curve" smooth="yes"/>
      <point x="652" y="553"/>
      <point x="677" y="454"/>
      <point x="677" y="355" type="curve" smooth="yes"/>
      <point x="677" y="199"/>
      <point x="612" y="103"/>
      <point x="557" y="59" type="curve" smooth="yes"/>
      <point x="486" y="0"/>
      <point x="397" y="0"/>
      <point x="291" y="0" type="curve" smooth="yes"/>
    </contour>
    <contour>
      <point x="188" y="639" type="line"/>
      <point x="188" y="82" type="line"/>
      <point x="286" y="82" type="line" smooth="yes"/>
      <point x="355" y="82"/>
      <point x="427" y="86"/>
      <point x="475" y="122" type="curve" smooth="yes"/>
      <point x="567" y="191"/>
      <point x="570" y="309"/>
      <point x="570" y="351" type="curve" smooth="yes"/>
      <point x="570" y="378"/>
      <point x="568" y="501"/>
      <point x="500" y="576" type="curve" smooth="yes"/>
      <point x="454" y="627"/>
      <point x="396" y="639"/>
      <point x="308" y="639" type="curve" smooth="yes"/>
    </contour>
  </outline>
</glyph>
<glyph name="I" format="1">
  <advance width="278"/>
  <unicode hex="0049"/>
  <outline>
    <contour>
      <point x="88" y="0" type="line"/>
      <point x="88" y="722" type="line"/>
      <point x="188" y="722" type="line"/>
      <point x="188" y="0" type="line"/>
    </contour>
  </outline>
</glyph>
<glyph name="J" format="1">
  <advance width="556"/>
  <unicode hex="004A"/>
  <outline>
    <contour>
      <point x="21" y="196" type="curve"/>
      <point x="127" y="196" type="line"/>
      <point x="128" y="171"/>
      <point x="128" y="140"/>
      <point x="143" y="117" type="curve" smooth="yes"/>
      <point x="155" y="98"/>
      <point x="185" y="73"/>
      <point x="236" y="73" type="curve" smooth="yes"/>
      <point x="277" y="73"/>
      <point x="315" y="90"/>
      <point x="336" y="124" type="curve" smooth="yes"/>
      <point x="353" y="153"/>
      <point x="353" y="199"/>
      <point x="353" y="221" type="curve" smooth="yes"/>
      <point x="353" y="722" type="line"/>
      <point x="453" y="722" type="line"/>
      <point x="453" y="194" type="line" smooth="yes"/>
      <point x="453" y="61"/>
      <point x="348" y="-11"/>
      <point x="229" y="-11" type="curve" smooth="yes"/>
      <point x="191" y="-11"/>
      <point x="107" y="-2"/>
      <point x="57" y="64" type="curve" smooth="yes"/>
      <point x="23" y="110"/>
      <point x="21" y="167"/>
    </contour>
  </outline>
</glyph>
<glyph name="K" format="1">
  <advance width="667"/>
  <unicode hex="004B"/>
  <outline>
    <contour>
      <point x="93" y="0" type="line"/>
      <point x="93" y="722" type="line"/>
      <point x="192" y="722" type="line"/>
      <point x="192" y="406" type="line"/>
      <point x="493" y="722" type="line"/>
      <point x="630" y="722" type="line"/>
      <point x="307" y="399" type="line"/>
      <point x="665" y="0" type="line"/>
      <point x="525" y="0" type="line"/>
      <point x="192" y="383" type="line"/>
      <point x="192" y="0" type="line"/>
    </contour>
  </outline>
</glyph>
<glyph name="M" format="1">
  <advance width="944"/>
  <unicode hex="004D"/>
  <outline>
    <contour>
      <point x="90" y="0" type="line"/>
      <point x="90" y="722" type="line"/>
      <point x="267" y="722" type="line"/>
      <point x="471" y="127" type="line"/>
      <point x="680" y="722" type="line"/>
      <point x="845" y="722" type="line"/>
      <point x="845" y="0" type="line"/>
      <point x="747" y="0" type="line"/>
      <point x="747" y="650" type="line"/>
      <point x="510" y="0" type="line"/>
      <point x="415" y="0" type="line"/>
      <point x="187" y="646" type="line"/>
      <point x="187" y="0" type="line"/>
    </contour>
  </outline>
</glyph>
<glyph name="N" format="1">
  <advance width="778"/>
  <unicode hex="004E"/>
  <outline>
    <contour>
      <point x="95" y="0" type="line"/>
      <point x="95" y="722" type="line"/>
      <point x="234" y="722" type="line"/>
      <point x="589" y="125" type="line"/>
      <point x="589" y="722" type="line"/>
      <point x="681" y="722" type="line"/>
      <point x="681" y="0" type="line"/>
      <point x="553" y="0" type="line"/>
      <point x="186" y="613" type="line"/>
      <point x="186" y="0" type="line"/>
    </contour>
  </outline>
</glyph>
<glyph name="P" format="1">
  <advance width="611"/>
  <unicode hex="0050"/>
  <outline>
    <contour>
      <point x="88" y="0" type="line"/>
      <point x="88" y="722" type="line"/>
      <point x="330" y="722" type="line" smooth="yes"/>
      <point x="418" y="722"/>
      <point x="478" y="717"/>
      <point x="527" y="664" type="curve" smooth="yes"/>
      <point x="563" y="627"/>
      <point x="580" y="578"/>
      <point x="580" y="524" type="curve" smooth="yes"/>
      <point x="580" y="469"/>
      <point x="562" y="422"/>
      <point x="523" y="383" type="curve" smooth="yes"/>
      <point x="485" y="345"/>
      <point x="435" y="321"/>
      <point x="305" y="321" type="curve" smooth="yes"/>
      <point x="188" y="321" type="line"/>
      <point x="188" y="0" type="line"/>
    </contour>
    <contour>
      <point x="188" y="641" type="line"/>
      <point x="188" y="405" type="line"/>
      <point x="307" y="405" type="line" smooth="yes"/>
      <point x="373" y="405"/>
      <point x="474" y="410"/>
      <point x="474" y="528" type="curve" smooth="yes"/>
      <point x="474" y="641"/>
      <point x="380" y="641"/>
      <point x="328" y="641" type="curve" smooth="yes"/>
    </contour>
  </outline>
</glyph>
<glyph name="Q" format="1">
  <advance width="778"/>
  <unicode hex="0051"/>
  <outline>
    <contour>
      <point x="754" y="79" type="line"/>
      <point x="754" y="0" type="line"/>
      <point x="634" y="0" type="line" smooth="yes"/>
      <point x="620" y="0"/>
      <point x="548" y="-1"/>
      <point x="500" y="-5" type="curve" smooth="yes"/>
      <point x="451" y="-10"/>
      <point x="393" y="-15"/>
      <point x="369" y="-15" type="curve" smooth="yes"/>
      <point x="197" y="-15"/>
      <point x="58" y="100"/>
      <point x="58" y="356" type="curve" smooth="yes"/>
      <point x="58" y="442"/>
      <point x="73" y="558"/>
      <point x="148" y="641" type="curve" smooth="yes"/>
      <point x="209" y="708"/>
      <point x="299" y="739"/>
      <point x="390" y="739" type="curve" smooth="yes"/>
      <point x="630" y="739"/>
      <point x="703" y="548"/>
      <point x="703" y="375" type="curve" smooth="yes"/>
      <point x="703" y="305"/>
      <point x="695" y="162"/>
      <point x="572" y="65" type="curve"/>
      <point x="596" y="70"/>
      <point x="635" y="79"/>
      <point x="701" y="79" type="curve" smooth="yes"/>
    </contour>
    <contour>
      <point x="164" y="354" type="curve" smooth="yes"/>
      <point x="164" y="235"/>
      <point x="207" y="63"/>
      <point x="379" y="63" type="curve" smooth="yes"/>
      <point x="585" y="63"/>
      <point x="601" y="283"/>
      <point x="601" y="358" type="curve" smooth="yes"/>
      <point x="601" y="544"/>
      <point x="521" y="656"/>
      <point x="381" y="656" type="curve" smooth="yes"/>
      <point x="181" y="656"/>
      <point x="164" y="433"/>
    </contour>
  </outline>
</glyph>
<glyph name="R" format="1">
  <advance width="667"/>
  <unicode hex="0052"/>
  <outline>
    <contour>
      <point x="86" y="0" type="line"/>
      <point x="86" y="722" type="line"/>
      <point x="344" y="722" type="line" smooth="yes"/>
      <point x="381" y="722"/>
      <point x="457" y="722"/>
      <point x="510" y="688" type="curve" smooth="yes"/>
      <point x="564" y="654"/>
      <point x="590" y="599"/>
      <point x="590" y="541" type="curve" smooth="yes"/>
      <point x="590" y="490"/>
      <point x="571" y="445"/>
      <point x="539" y="413" type="curve" smooth="yes"/>
      <point x="508" y="382"/>
      <point x="476" y="372"/>
      <point x="454" y="366" type="curve"/>
      <point x="523" y="348"/>
      <point x="554" y="317"/>
      <point x="564" y="227" type="curve" smooth="yes"/>
      <point x="574" y="142"/>
      <point x="581" y="80"/>
      <point x="609" y="0" type="curve"/>
      <point x="502" y="0" type="line"/>
      <point x="486" y="48"/>
      <point x="476" y="136"/>
      <point x="469" y="191" type="curve" smooth="yes"/>
      <point x="457" y="296"/>
      <point x="432" y="326"/>
      <point x="311" y="326" type="curve" smooth="yes"/>
      <point x="185" y="326" type="line"/>
      <point x="185" y="0" type="line"/>
    </contour>
    <contour>
      <point x="183" y="638" type="line"/>
      <point x="183" y="411" type="line"/>
      <point x="341" y="411" type="line" smooth="yes"/>
      <point x="352" y="411"/>
      <point x="409" y="411"/>
      <point x="436" y="427" type="curve" smooth="yes"/>
      <point x="450" y="435"/>
      <point x="485" y="461"/>
      <point x="485" y="521" type="curve" smooth="yes"/>
      <point x="485" y="638"/>
      <point x="381" y="638"/>
      <point x="341" y="638" type="curve" smooth="yes"/>
    </contour>
  </outline>
</glyph>
<glyph name="W" format="1">
  <advance width="1000"/>
  <unicode hex="0057"/>
  <outline>
    <contour>
      <point x="8" y="722" type="line"/>
      <point x="115" y="722" type="line"/>
      <point x="271" y="128" type="line"/>
      <point x="443" y="722" type="line"/>
      <point x="567" y="722" type="line"/>
      <point x="730" y="123" type="line"/>
      <point x="894" y="722" type="line"/>
      <point x="992" y="722" type="line"/>
      <point x="778" y="0" type="line"/>
      <point x="667" y="0" type="line"/>
      <point x="500" y="617" type="line"/>
      <point x="321" y="0" type="line"/>
      <point x="213" y="0" type="line"/>
    </contour>
  </outline>
</glyph>
<glyph name="X" format="1">
  <advance width="722"/>
  <unicode hex="0058"/>
  <outline>
    <contour>
      <point x="49" y="722" type="line"/>
      <point x="177" y="722" type="line"/>
      <point x="372" y="444" type="line"/>
      <point x="567" y="722" type="line"/>
      <point x="688" y="722" type="line"/>
      <point x="431" y="376" type="line"/>
      <point x="701" y="0" type="line"/>
      <point x="575" y="0" type="line"/>
      <point x="360" y="310" type="line"/>
      <point x="140" y="0" type="line"/>
      <point x="19" y="0" type="line"/>
      <point x="299" y="378" type="line"/>
    </contour>
  </outline>
</glyph>
<glyph name="Y" format="1">
  <advance width="667"/>
  <unicode hex="0059"/>
  <outline>
    <contour>
      <point x="289" y="0" type="line"/>
      <point x="289" y="284" type="line"/>
      <point x="7" y="722" type="line"/>
      <point x="131" y="722" type="line"/>
      <point x="344" y="368" type="line"/>
      <point x="560" y="722" type="line"/>
      <point x="672" y="722" type="line"/>
      <point x="390" y="279" type="line"/>
      <point x="390" y="0" type="line"/>
    </contour>
  </outline>
</glyph>
<glyph name="bracketright" format="1">
  <advance width="333"/>
  <unicode hex="005D"/>
  <outline>
    <contour>
      <point x="60" y="-125" type="line"/>
      <point x="60" y="-72" type="line"/>
      <point x="155" y="-72" type="line"/>
      <point x="155" y="697" type="line"/>
      <point x="60" y="697" type="line"/>
      <point x="60" y="750" type="line"/>
      <point x="234" y="750" type="line"/>
      <point x="234" y="-125" type="line"/>
    </contour>
  </outline>
</glyph>
<glyph name="asciicircum" format="1">
  <advance width="584"/>
  <unicode hex="005E"/>
  <outline>
    <contour>
      <point x="82" y="271" type="line"/>
      <point x="254" y="692" type="line"/>
      <point x="330" y="692" type="line"/>
      <point x="502" y="271" type="line"/>
      <point x="416" y="271" type="line"/>
      <point x="290" y="589" type="line"/>
      <point x="168" y="271" type="line"/>
    </contour>
  </outline>
</glyph>
<glyph name="grave" format="1">
  <advance width="278"/>
  <unicode hex="0060"/>
  <outline>
    <contour>
      <point x="2" y="740" type="line"/>
      <point x="115" y="740" type="line"/>
      <point x="199" y="596" type="line"/>
      <point x="137" y="596" type="line"/>
    </contour>
  </outline>
</glyph>
<glyph name="c" format="1">
  <advance width="500"/>
  <unicode hex="0063"/>
  <outline>
    <contour>
      <point x="469" y="341" type="curve"/>
      <point x="374" y="341" type="line"/>
      <point x="372" y="364"/>
      <point x="365" y="446"/>
      <point x="274" y="446" type="curve" smooth="yes"/>
      <point x="144" y="446"/>
      <point x="144" y="295"/>
      <point x="144" y="257" type="curve" smooth="yes"/>
      <point x="144" y="154"/>
      <point x="169" y="58"/>
      <point x="269" y="58" type="curve" smooth="yes"/>
      <point x="349" y="58"/>
      <point x="376" y="118"/>
      <point x="378" y="167" type="curve"/>
      <point x="473" y="167" type="line"/>
      <point x="467" y="69"/>
      <point x="394" y="-13"/>
      <point x="270" y="-13" type="curve" smooth="yes"/>
      <point x="236" y="-13"/>
      <point x="158" y="-6"/>
      <point x="105" y="52" type="curve" smooth="yes"/>
      <point x="75" y="87"/>
      <point x="45" y="140"/>
      <point x="45" y="244" type="curve" smooth="yes"/>
      <point x="45" y="453"/>
      <point x="173" y="515"/>
      <point x="273" y="515" type="curve" smooth="yes"/>
      <point x="306" y="515"/>
      <point x="381" y="508"/>
      <point x="427" y="453" type="curve" smooth="yes"/>
      <point x="464" y="410"/>
      <point x="467" y="369"/>
    </contour>
  </outline>
</glyph>
<glyph name="d" format="1">
  <advance width="611"/>
  <unicode hex="0064"/>
  <outline>
    <contour>
      <point x="436" y="434" type="curve"/>
      <point x="436" y="721" type="line"/>
      <point x="530" y="721" type="line"/>
      <point x="530" y="80" type="line" smooth="yes"/>
      <point x="530" y="69"/>
      <point x="532" y="26"/>
      <point x="534" y="0" type="curve"/>
      <point x="440" y="0" type="line"/>
      <point x="438" y="80" type="line"/>
      <point x="430" y="66"/>
      <point x="419" y="45"/>
      <point x="393" y="27" type="curve" smooth="yes"/>
      <point x="352" y="-1"/>
      <point x="303" y="-10"/>
      <point x="269" y="-10" type="curve" smooth="yes"/>
      <point x="202" y="-10"/>
      <point x="53" y="25"/>
      <point x="53" y="245" type="curve" smooth="yes"/>
      <point x="53" y="436"/>
      <point x="162" y="519"/>
      <point x="280" y="519" type="curve" smooth="yes"/>
      <point x="388" y="519"/>
      <point x="424" y="455"/>
    </contour>
    <contour>
      <point x="439" y="258" type="curve" smooth="yes"/>
      <point x="439" y="331"/>
      <point x="422" y="371"/>
      <point x="401" y="398" type="curve" smooth="yes"/>
      <point x="381" y="424"/>
      <point x="344" y="449"/>
      <point x="291" y="449" type="curve" smooth="yes"/>
      <point x="153" y="449"/>
      <point x="153" y="282"/>
      <point x="153" y="248" type="curve" smooth="yes"/>
      <point x="153" y="159"/>
      <point x="176" y="56"/>
      <point x="291" y="56" type="curve" smooth="yes"/>
      <point x="439" y="56"/>
      <point x="439" y="219"/>
    </contour>
  </outline>
</glyph>
<glyph name="e" format="1">
  <advance width="556"/>
  <unicode hex="0065"/>
  <outline>
    <contour>
      <point x="506" y="234" type="curve"/>
      <point x="145" y="234" type="line"/>
      <point x="143" y="130"/>
      <point x="186" y="53"/>
      <point x="289" y="53" type="curve" smooth="yes"/>
      <point x="350" y="53"/>
      <point x="399" y="85"/>
      <point x="407" y="157" type="curve"/>
      <point x="501" y="157" type="line"/>
      <point x="498" y="132"/>
      <point x="494" y="91"/>
      <point x="458" y="52" type="curve" smooth="yes"/>
      <point x="436" y="27"/>
      <point x="386" y="-15"/>
      <point x="285" y="-15" type="curve" smooth="yes"/>
      <point x="127" y="-15"/>
      <point x="52" y="83"/>
      <point x="52" y="242" type="curve" smooth="yes"/>
      <point x="52" y="341"/>
      <point x="72" y="423"/>
      <point x="151" y="478" type="curve" smooth="yes"/>
      <point x="199" y="512"/>
      <point x="259" y="515"/>
      <point x="288" y="515" type="curve" smooth="yes"/>
      <point x="513" y="515"/>
      <point x="508" y="316"/>
    </contour>
    <contour>
      <point x="149" y="300" type="curve"/>
      <point x="410" y="300" type="line"/>
      <point x="411" y="348"/>
      <point x="402" y="448"/>
      <point x="286" y="448" type="curve" smooth="yes"/>
      <point x="225" y="448"/>
      <point x="151" y="411"/>
    </contour>
  </outline>
</glyph>
<glyph name="f" format="1">
  <advance width="333"/>
  <unicode hex="0066"/>
  <outline>
    <contour>
      <point x="339" y="727" type="curve"/>
      <point x="339" y="652" type="line"/>
      <point x="323" y="653"/>
      <point x="303" y="654"/>
      <point x="284" y="654" type="curve" smooth="yes"/>
      <point x="208" y="654"/>
      <point x="208" y="616"/>
      <point x="208" y="581" type="curve" smooth="yes"/>
      <point x="208" y="502" type="line"/>
      <point x="325" y="502" type="line"/>
      <point x="325" y="434" type="line"/>
      <point x="208" y="434" type="line"/>
      <point x="208" y="0" type="line"/>
      <point x="115" y="0" type="line"/>
      <point x="115" y="434" type="line"/>
      <point x="16" y="434" type="line"/>
      <point x="16" y="502" type="line"/>
      <point x="115" y="502" type="line"/>
      <point x="115" y="559" type="line" smooth="yes"/>
      <point x="115" y="628"/>
      <point x="119" y="653"/>
      <point x="136" y="679" type="curve" smooth="yes"/>
      <point x="157" y="711"/>
      <point x="197" y="734"/>
      <point x="262" y="734" type="curve" smooth="yes"/>
      <point x="289" y="734"/>
      <point x="319" y="730"/>
    </contour>
  </outline>
</glyph>
<glyph name="g" format="1">
  <advance width="611"/>
  <unicode hex="0067"/>
  <outline>
    <contour>
      <point x="78" y="-39" type="curve"/>
      <point x="178" y="-39" type="line"/>
      <point x="182" y="-95"/>
      <point x="206" y="-137"/>
      <point x="295" y="-137" type="curve" smooth="yes"/>
      <point x="426" y="-137"/>
      <point x="428" y="-42"/>
      <point x="428" y="94" type="curve"/>
      <point x="388" y="11"/>
      <point x="293" y="9"/>
      <point x="263" y="9" type="curve" smooth="yes"/>
      <point x="217" y="9"/>
      <point x="151" y="19"/>
      <point x="109" y="71" type="curve" smooth="yes"/>
      <point x="66" y="122"/>
      <point x="52" y="189"/>
      <point x="52" y="256" type="curve" smooth="yes"/>
      <point x="52" y="426"/>
      <point x="152" y="509"/>
      <point x="275" y="509" type="curve" smooth="yes"/>
      <point x="376" y="509"/>
      <point x="413" y="459"/>
      <point x="433" y="433" type="curve"/>
      <point x="434" y="502" type="line"/>
      <point x="525" y="502" type="line"/>
      <point x="523" y="411" type="line"/>
      <point x="522" y="97" type="line" smooth="yes"/>
      <point x="522" y="-24"/>
      <point x="518" y="-73"/>
      <point x="498" y="-111" type="curve" smooth="yes"/>
      <point x="456" y="-191"/>
      <point x="358" y="-201"/>
      <point x="289" y="-201" type="curve" smooth="yes"/>
      <point x="88" y="-201"/>
      <point x="82" y="-107"/>
    </contour>
    <contour>
      <point x="287" y="79" type="curve" smooth="yes"/>
      <point x="342" y="79"/>
      <point x="374" y="99"/>
      <point x="397" y="129" type="curve" smooth="yes"/>
      <point x="417" y="155"/>
      <point x="431" y="182"/>
      <point x="431" y="273" type="curve" smooth="yes"/>
      <point x="431" y="336"/>
      <point x="417" y="372"/>
      <point x="392" y="398" type="curve" smooth="yes"/>
      <point x="367" y="425"/>
      <point x="327" y="442"/>
      <point x="284" y="442" type="curve" smooth="yes"/>
      <point x="165" y="442"/>
      <point x="149" y="322"/>
      <point x="149" y="258" type="curve" smooth="yes"/>
      <point x="149" y="181"/>
      <point x="172" y="79"/>
    </contour>
  </outline>
</glyph>
<glyph name="k" format="1">
  <advance width="500"/>
  <unicode hex="006B"/>
  <outline>
    <contour>
      <point x="81" y="0" type="line"/>
      <point x="81" y="727" type="line"/>
      <point x="174" y="727" type="line"/>
      <point x="174" y="297" type="line"/>
      <point x="362" y="502" type="line"/>
      <point x="485" y="502" type="line"/>
      <point x="273" y="289" type="line"/>
      <point x="498" y="0" type="line"/>
      <point x="375" y="0" type="line"/>
      <point x="174" y="271" type="line"/>
      <point x="174" y="0" type="line"/>
    </contour>
  </outline>
</glyph>
<glyph name="r" format="1">
  <advance width="389"/>
  <unicode hex="0072"/>
  <outline>
    <contour>
      <point x="93" y="0" type="line"/>
      <point x="93" y="400" type="line" smooth="yes"/>
      <point x="93" y="434"/>
      <point x="91" y="469"/>
      <point x="88" y="502" type="curve"/>
      <point x="183" y="502" type="line"/>
      <point x="185" y="405" type="line"/>
      <point x="203" y="475"/>
      <point x="263" y="498"/>
      <point x="305" y="504" type="curve" smooth="yes"/>
      <point x="333" y="508"/>
      <point x="354" y="507"/>
      <point x="370" y="506" type="curve"/>
      <point x="370" y="414" type="line"/>
      <point x="365" y="416"/>
      <point x="359" y="417"/>
      <point x="352" y="418" type="curve" smooth="yes"/>
      <point x="345" y="419"/>
      <point x="336" y="419"/>
      <point x="325" y="419" type="curve" smooth="yes"/>
      <point x="214" y="419"/>
      <point x="188" y="353"/>
      <point x="188" y="267" type="curve" smooth="yes"/>
      <point x="188" y="0" type="line"/>
    </contour>
  </outline>
</glyph>
<glyph name="t" format="1">
  <advance width="333"/>
  <unicode hex="0074"/>
  <outline>
    <contour>
      <point x="11" y="435" type="line"/>
      <point x="11" y="504" type="line"/>
      <point x="100" y="504" type="line"/>
      <point x="100" y="609" type="line"/>
      <point x="193" y="639" type="line"/>
      <point x="193" y="504" type="line"/>
      <point x="305" y="504" type="line"/>
      <point x="305" y="435" type="line"/>
      <point x="193" y="435" type="line"/>
      <point x="193" y="134" type="line" smooth="yes"/>
      <point x="193" y="109"/>
      <point x="193" y="67"/>
      <point x="260" y="67" type="curve" smooth="yes"/>
      <point x="279" y="67"/>
      <point x="297" y="70"/>
      <point x="305" y="72" type="curve"/>
      <point x="305" y="-1" type="line"/>
      <point x="288" y="-4"/>
      <point x="261" y="-7"/>
      <point x="227" y="-7" type="curve" smooth="yes"/>
      <point x="141" y="-7"/>
      <point x="100" y="18"/>
      <point x="100" y="100" type="curve" smooth="yes"/>
      <point x="100" y="435" type="line"/>
    </contour>
  </outline>
</glyph>
<glyph name="u" format="1">
  <advance width="611"/>
  <unicode hex="0075"/>
  <outline>
    <contour>
      <point x="78" y="502" type="line"/>
      <point x="174" y="502" type="line"/>
      <point x="174" y="179" type="line" smooth="yes"/>
      <point x="174" y="130"/>
      <point x="185" y="68"/>
      <point x="281" y="68" type="curve" smooth="yes"/>
      <point x="328" y="68"/>
      <point x="372" y="84"/>
      <point x="399" y="124" type="curve" smooth="yes"/>
      <point x="420" y="154"/>
      <point x="420" y="193"/>
      <point x="420" y="218" type="curve" smooth="yes"/>
      <point x="420" y="502" type="line"/>
      <point x="517" y="502" type="line"/>
      <point x="517" y="94" type="line" smooth="yes"/>
      <point x="517" y="84"/>
      <point x="519" y="28"/>
      <point x="520" y="0" type="curve"/>
      <point x="422" y="0" type="line"/>
      <point x="420" y="86" type="line"/>
      <point x="402" y="51"/>
      <point x="368" y="-5"/>
      <point x="260" y="-5" type="curve" smooth="yes"/>
      <point x="136" y="-5"/>
      <point x="78" y="66"/>
      <point x="78" y="165" type="curve" smooth="yes"/>
    </contour>
  </outline>
</glyph>
<glyph name="w" format="1">
  <advance width="833"/>
  <unicode hex="0077"/>
  <outline>
    <contour>
      <point x="12" y="502" type="line"/>
      <point x="115" y="502" type="line"/>
      <point x="236" y="102" type="line"/>
      <point x="363" y="502" type="line"/>
      <point x="486" y="502" type="line"/>
      <point x="600" y="106" type="line"/>
      <point x="726" y="502" type="line"/>
      <point x="823" y="502" type="line"/>
      <point x="646" y="0" type="line"/>
      <point x="538" y="0" type="line"/>
      <point x="420" y="413" type="line"/>
      <point x="289" y="0" type="line"/>
      <point x="178" y="0" type="line"/>
    </contour>
  </outline>
</glyph>
<glyph name="x" format="1">
  <advance width="556"/>
  <unicode hex="0078"/>
  <outline>
    <contour>
      <point x="335" y="257" type="line"/>
      <point x="531" y="0" type="line"/>
      <point x="407" y="0" type="line"/>
      <point x="264" y="201" type="line"/>
      <point x="122" y="0" type="line"/>
      <point x="12" y="0" type="line"/>
      <point x="211" y="263" type="line"/>
      <point x="23" y="502" type="line"/>
      <point x="146" y="502" type="line"/>
      <point x="280" y="313" type="line"/>
      <point x="420" y="502" type="line"/>
      <point x="531" y="502" type="line"/>
    </contour>
  </outline>
</glyph>
<glyph name="y" format="1">
  <advance width="556"/>
  <unicode hex="0079"/>
  <outline>
    <contour>
      <point x="537" y="502" type="line"/>
      <point x="314" y="-3" type="line"/>
      <point x="242" y="-190" type="line"/>
      <point x="145" y="-190" type="line"/>
      <point x="221" y="2" type="line"/>
      <point x="12" y="502" type="line"/>
      <point x="118" y="502" type="line"/>
      <point x="275" y="106" type="line"/>
      <point x="435" y="502" type="line"/>
    </contour>
  </outline>
</glyph>
<glyph name="bar" format="1">
  <advance width="260"/>
  <unicode hex="007C"/>
  <outline>
    <contour>
      <point x="89" y="750" type="line"/>
      <point x="172" y="750" type="line"/>
      <point x="172" y="-250" type="line"/>
      <point x="89" y="-250" type="line"/>
    </contour>
  </outline>
</glyph>
<glyph name="cent" format="1">
  <advance width="556"/>
  <unicode hex="00A2"/>
  <outline>
    <contour>
      <point x="497" y="341" type="curve"/>
      <point x="402" y="341" type="line"/>
      <point x="400" y="357"/>
      <point x="397" y="387"/>
      <point x="374" y="413" type="curve"/>
      <point x="274" y="60" type="line"/>
      <point x="283" y="58"/>
      <point x="287" y="57"/>
      <point x="296" y="57" type="curve" smooth="yes"/>
      <point x="358" y="57"/>
      <point x="404" y="95"/>
      <point x="406" y="167" type="curve"/>
      <point x="501" y="167" type="line"/>
      <point x="495" y="69"/>
      <point x="424" y="-13"/>
      <point x="296" y="-13" type="curve" smooth="yes"/>
      <point x="292" y="-13"/>
      <point x="272" y="-13"/>
      <point x="255" y="-10" type="curve"/>
      <point x="216" y="-146" type="line"/>
      <point x="167" y="-146" type="line"/>
      <point x="209" y="2" type="line"/>
      <point x="92" y="45"/>
      <point x="72" y="168"/>
      <point x="72" y="244" type="curve" smooth="yes"/>
      <point x="72" y="319"/>
      <point x="89" y="394"/>
      <point x="140" y="448" type="curve" smooth="yes"/>
      <point x="177" y="487"/>
      <point x="234" y="515"/>
      <point x="302" y="515" type="curve" smooth="yes"/>
      <point x="327" y="515"/>
      <point x="340" y="512"/>
      <point x="353" y="510" type="curve"/>
      <point x="387" y="630" type="line"/>
      <point x="435" y="630" type="line"/>
      <point x="397" y="495" type="line"/>
      <point x="435" y="479"/>
      <point x="493" y="436"/>
    </contour>
    <contour>
      <point x="230" y="78" type="curve"/>
      <point x="333" y="440" type="line"/>
      <point x="327" y="442"/>
      <point x="316" y="446"/>
      <point x="298" y="446" type="curve" smooth="yes"/>
      <point x="263" y="446"/>
      <point x="230" y="430"/>
      <point x="208" y="402" type="curve" smooth="yes"/>
      <point x="189" y="378"/>
      <point x="172" y="342"/>
      <point x="172" y="260" type="curve" smooth="yes"/>
      <point x="172" y="201"/>
      <point x="181" y="114"/>
    </contour>
  </outline>
</glyph>
<glyph name="sterling" format="1">
  <advance width="556"/>
  <unicode hex="00A3"/>
  <outline>
    <contour>
      <point x="106" y="347" type="line"/>
      <point x="32" y="347" type="line"/>
      <point x="32" y="414" type="line"/>
      <point x="108" y="414" type="line"/>
      <point x="106" y="462"/>
      <point x="104" y="519"/>
      <point x="116" y="569" type="curve" smooth="yes"/>
      <point x="122" y="595"/>
      <point x="160" y="718"/>
      <point x="330" y="718" type="curve" smooth="yes"/>
      <point x="385" y="718"/>
      <point x="458" y="706"/>
      <point x="508" y="652" type="curve" smooth="yes"/>
      <point x="540" y="618"/>
      <point x="540" y="577"/>
      <point x="540" y="556" type="curve"/>
      <point x="442" y="556" type="line"/>
      <point x="441" y="612"/>
      <point x="400" y="654"/>
      <point x="332" y="654" type="curve" smooth="yes"/>
      <point x="305" y="654"/>
      <point x="262" y="647"/>
      <point x="234" y="612" type="curve" smooth="yes"/>
      <point x="204" y="575"/>
      <point x="204" y="548"/>
      <point x="204" y="456" type="curve" smooth="yes"/>
      <point x="204" y="414" type="line"/>
      <point x="345" y="414" type="line"/>
      <point x="345" y="347" type="line"/>
      <point x="204" y="347" type="line"/>
      <point x="204" y="67" type="line"/>
      <point x="523" y="67" type="line"/>
      <point x="523" y="0" type="line"/>
      <point x="39" y="0" type="line"/>
      <point x="39" y="68" type="line"/>
      <point x="106" y="68" type="line"/>
    </contour>
  </outline>
</glyph>
<glyph name="currency" format="1">
  <advance width="556"/>
  <unicode hex="00A4"/>
  <outline>
    <contour>
      <point x="40" y="157" type="line"/>
      <point x="105" y="222" type="line"/>
      <point x="93" y="240"/>
      <point x="65" y="281"/>
      <point x="65" y="346" type="curve" smooth="yes"/>
      <point x="65" y="391"/>
      <point x="79" y="434"/>
      <point x="105" y="471" type="curve"/>
      <point x="40" y="536" type="line"/>
      <point x="89" y="585" type="line"/>
      <point x="154" y="520" type="line"/>
      <point x="176" y="535"/>
      <point x="214" y="559"/>
      <point x="279" y="559" type="curve" smooth="yes"/>
      <point x="339" y="559"/>
      <point x="379" y="534"/>
      <point x="403" y="519" type="curve"/>
      <point x="467" y="584" type="line"/>
      <point x="516" y="535" type="line"/>
      <point x="451" y="470" type="line"/>
      <point x="478" y="434"/>
      <point x="491" y="391"/>
      <point x="491" y="346" type="curve" smooth="yes"/>
      <point x="491" y="282"/>
      <point x="462" y="239"/>
      <point x="451" y="223" type="curve"/>
      <point x="516" y="157" type="line"/>
      <point x="467" y="108" type="line"/>
      <point x="402" y="173" type="line"/>
      <point x="365" y="148"/>
      <point x="323" y="133"/>
      <point x="279" y="133" type="curve" smooth="yes"/>
      <point x="234" y="133"/>
      <point x="191" y="147"/>
      <point x="155" y="173" type="curve"/>
      <point x="89" y="108" type="line"/>
    </contour>
    <contour>
      <point x="278" y="485" type="curve" smooth="yes"/>
      <point x="202" y="485"/>
      <point x="139" y="424"/>
      <point x="139" y="346" type="curve" smooth="yes"/>
      <point x="139" y="270"/>
      <point x="201" y="207"/>
      <point x="278" y="207" type="curve" smooth="yes"/>
      <point x="355" y="207"/>
      <point x="417" y="269"/>
      <point x="417" y="346" type="curve" smooth="yes"/>
      <point x="417" y="424"/>
      <point x="354" y="485"/>
    </contour>
  </outline>
</glyph>
<glyph name="brokenbar" format="1">
  <advance width="260"/>
  <unicode hex="00A6"/>
  <outline>
    <contour>
      <point x="89" y="675" type="line"/>
      <point x="172" y="675" type="line"/>
      <point x="172" y="325" type="line"/>
      <point x="89" y="325" type="line"/>
    </contour>
    <contour>
      <point x="89" y="175" type="line"/>
      <point x="172" y="175" type="line"/>
      <point x="172" y="-175" type="line"/>
      <point x="89" y="-175" type="line"/>
    </contour>
  </outline>
</glyph>
<glyph name="dieresis" format="1">
  <advance width="278"/>
  <unicode hex="00A8"/>
  <outline>
    <contour>
      <point x="-3" y="617" type="line"/>
      <point x="-3" y="719" type="line"/>
      <point x="89" y="719" type="line"/>
      <point x="89" y="617" type="line"/>
    </contour>
    <contour>
      <point x="186" y="617" type="line"/>
      <point x="186" y="719" type="line"/>
      <point x="279" y="719" type="line"/>
      <point x="279" y="617" type="line"/>
    </contour>
  </outline>
</glyph>
<glyph name="copyright" format="1">
  <advance width="800"/>
  <unicode hex="00A9"/>
  <outline>
    <contour>
      <point x="33" y="362" type="curve" smooth="yes"/>
      <point x="33" y="569"/>
      <point x="201" y="741"/>
      <point x="413" y="741" type="curve" smooth="yes"/>
      <point x="622" y="741"/>
      <point x="792" y="571"/>
      <point x="792" y="362" type="curve" smooth="yes"/>
      <point x="792" y="153"/>
      <point x="622" y="-17"/>
      <point x="413" y="-17" type="curve" smooth="yes"/>
      <point x="201" y="-17"/>
      <point x="33" y="155"/>
    </contour>
    <contour>
      <point x="78" y="362" type="curve" smooth="yes"/>
      <point x="78" y="179"/>
      <point x="226" y="28"/>
      <point x="413" y="28" type="curve" smooth="yes"/>
      <point x="598" y="28"/>
      <point x="747" y="179"/>
      <point x="747" y="362" type="curve" smooth="yes"/>
      <point x="747" y="545"/>
      <point x="597" y="696"/>
      <point x="413" y="696" type="curve" smooth="yes"/>
      <point x="226" y="696"/>
      <point x="78" y="545"/>
    </contour>
    <contour>
      <point x="556" y="463" type="curve"/>
      <point x="497" y="463" type="line"/>
      <point x="496" y="478"/>
      <point x="489" y="538"/>
      <point x="412" y="538" type="curve" smooth="yes"/>
      <point x="316" y="538"/>
      <point x="301" y="429"/>
      <point x="301" y="359" type="curve" smooth="yes"/>
      <point x="301" y="281"/>
      <point x="320" y="190"/>
      <point x="412" y="190" type="curve" smooth="yes"/>
      <point x="483" y="190"/>
      <point x="493" y="247"/>
      <point x="495" y="261" type="curve"/>
      <point x="555" y="261" type="line"/>
      <point x="547" y="178"/>
      <point x="477" y="141"/>
      <point x="407" y="141" type="curve" smooth="yes"/>
      <point x="269" y="141"/>
      <point x="242" y="277"/>
      <point x="242" y="359" type="curve" smooth="yes"/>
      <point x="242" y="446"/>
      <point x="272" y="586"/>
      <point x="415" y="586" type="curve" smooth="yes"/>
      <point x="471" y="586"/>
      <point x="549" y="561"/>
    </contour>
  </outline>
</glyph>
<glyph name="logicalnot" format="1">
  <advance width="584"/>
  <unicode hex="00AC"/>
  <outline>
    <contour>
      <point x="37" y="314" type="line"/>
      <point x="37" y="391" type="line"/>
      <point x="547" y="391" type="line"/>
      <point x="547" y="111" type="line"/>
      <point x="467" y="111" type="line"/>
      <point x="467" y="314" type="line"/>
    </contour>
  </outline>
</glyph>
<glyph name="degree" format="1">
  <advance width="400"/>
  <unicode hex="00B0"/>
  <outline>
    <contour>
      <point x="200" y="706" type="curve" smooth="yes"/>
      <point x="286" y="706"/>
      <point x="356" y="637"/>
      <point x="356" y="550" type="curve" smooth="yes"/>
      <point x="356" y="465"/>
      <point x="287" y="394"/>
      <point x="200" y="394" type="curve" smooth="yes"/>
      <point x="114" y="394"/>
      <point x="44" y="464"/>
      <point x="44" y="550" type="curve" smooth="yes"/>
      <point x="44" y="637"/>
      <point x="114" y="706"/>
    </contour>
    <contour>
      <point x="200" y="637" type="curve" smooth="yes"/>
      <point x="153" y="637"/>
      <point x="113" y="599"/>
      <point x="113" y="550" type="curve" smooth="yes"/>
      <point x="113" y="502"/>
      <point x="152" y="463"/>
      <point x="200" y="463" type="curve" smooth="yes"/>
      <point x="249" y="463"/>
      <point x="287" y="503"/>
      <point x="287" y="550" type="curve" smooth="yes"/>
      <point x="287" y="598"/>
      <point x="248" y="637"/>
    </contour>
  </outline>
</glyph>
<glyph name="acute" format="1">
  <advance width="278"/>
  <unicode hex="00B4"/>
  <outline>
    <contour>
      <point x="162" y="740" type="line"/>
      <point x="266" y="740" type="line"/>
      <point x="145" y="596" type="line"/>
      <point x="80" y="596" type="line"/>
    </contour>
  </outline>
</glyph>
<glyph name="paragraph" format="1">
  <advance width="537"/>
  <unicode hex="00B6"/>
  <outline>
    <contour>
      <point x="526" y="658" type="line"/>
      <point x="472" y="658" type="line"/>
      <point x="472" y="-168" type="line"/>
      <point x="394" y="-168" type="line"/>
      <point x="394" y="658" type="line"/>
      <point x="277" y="658" type="line"/>
      <point x="277" y="-168" type="line"/>
      <point x="198" y="-168" type="line"/>
      <point x="198" y="264" type="line"/>
      <point x="42" y="276"/>
      <point x="-5" y="390"/>
      <point x="-5" y="486" type="curve" smooth="yes"/>
      <point x="-5" y="583"/>
      <point x="49" y="722"/>
      <point x="254" y="722" type="curve" smooth="yes"/>
      <point x="526" y="722" type="line"/>
    </contour>
  </outline>
</glyph>
<glyph name="cedilla" format="1">
  <advance width="278"/>
  <unicode hex="00B8"/>
  <outline>
    <contour>
      <point x="22" y="-194" type="curve"/>
      <point x="42" y="-157" type="line"/>
      <point x="53" y="-163"/>
      <point x="72" y="-171"/>
      <point x="109" y="-171" type="curve" smooth="yes"/>
      <point x="143" y="-171"/>
      <point x="162" y="-157"/>
      <point x="162" y="-131" type="curve" smooth="yes"/>
      <point x="162" y="-96"/>
      <point x="127" y="-92"/>
      <point x="111" y="-92" type="curve" smooth="yes"/>
      <point x="97" y="-92"/>
      <point x="88" y="-95"/>
      <point x="75" y="-100" type="curve"/>
      <point x="60" y="-83" type="line"/>
      <point x="123" y="5" type="line"/>
      <point x="165" y="5" type="line"/>
      <point x="120" y="-58" type="line"/>
      <point x="131" y="-56"/>
      <point x="143" y="-53"/>
      <point x="160" y="-53" type="curve" smooth="yes"/>
      <point x="218" y="-53"/>
      <point x="238" y="-94"/>
      <point x="238" y="-124" type="curve" smooth="yes"/>
      <point x="238" y="-132"/>
      <point x="237" y="-214"/>
      <point x="116" y="-214" type="curve" smooth="yes"/>
      <point x="68" y="-214"/>
      <point x="45" y="-204"/>
    </contour>
  </outline>
</glyph>
<glyph name="onequarter" format="1">
  <advance width="834"/>
  <unicode hex="00BC"/>
  <outline>
    <contour>
      <point x="736" y="0" type="line"/>
      <point x="674" y="0" type="line"/>
      <point x="674" y="90" type="line"/>
      <point x="471" y="90" type="line"/>
      <point x="471" y="161" type="line"/>
      <point x="666" y="421" type="line"/>
      <point x="736" y="421" type="line"/>
      <point x="736" y="139" type="line"/>
      <point x="802" y="139" type="line"/>
      <point x="802" y="90" type="line"/>
      <point x="736" y="90" type="line"/>
    </contour>
    <contour>
      <point x="520" y="139" type="line"/>
      <point x="675" y="139" type="line"/>
      <point x="675" y="357" type="line"/>
    </contour>
    <contour>
      <point x="146" y="-28" type="line"/>
      <point x="576" y="715" type="line"/>
      <point x="640" y="715" type="line"/>
      <point x="211" y="-28" type="line"/>
    </contour>
    <contour>
      <point x="191" y="284" type="line"/>
      <point x="129" y="284" type="line"/>
      <point x="129" y="634" type="line"/>
      <point x="81" y="598"/>
      <point x="43" y="581"/>
      <point x="24" y="573" type="curve"/>
      <point x="24" y="634" type="line"/>
      <point x="59" y="650"/>
      <point x="91" y="666"/>
      <point x="134" y="699" type="curve"/>
      <point x="191" y="699" type="line"/>
    </contour>
  </outline>
</glyph>
<glyph name="threequarters" format="1">
  <advance width="834"/>
  <unicode hex="00BE"/>
  <outline>
    <contour>
      <point x="747" y="0" type="line"/>
      <point x="685" y="0" type="line"/>
      <point x="685" y="90" type="line"/>
      <point x="482" y="90" type="line"/>
      <point x="482" y="161" type="line"/>
      <point x="677" y="421" type="line"/>
      <point x="747" y="421" type="line"/>
      <point x="747" y="139" type="line"/>
      <point x="813" y="139" type="line"/>
      <point x="813" y="90" type="line"/>
      <point x="747" y="90" type="line"/>
    </contour>
    <contour>
      <point x="532" y="139" type="line"/>
      <point x="686" y="139" type="line"/>
      <point x="686" y="357" type="line"/>
    </contour>
    <contour>
      <point x="176" y="-28" type="line"/>
      <point x="605" y="715" type="line"/>
      <point x="670" y="715" type="line"/>
      <point x="241" y="-28" type="line"/>
    </contour>
    <contour>
      <point x="12" y="390" type="curve"/>
      <point x="81" y="390" type="line"/>
      <point x="80" y="346"/>
      <point x="113" y="322"/>
      <point x="165" y="322" type="curve" smooth="yes"/>
      <point x="226" y="322"/>
      <point x="253" y="360"/>
      <point x="253" y="397" type="curve" smooth="yes"/>
      <point x="253" y="478"/>
      <point x="158" y="474"/>
      <point x="126" y="472" type="curve"/>
      <point x="126" y="521" type="line"/>
      <point x="145" y="519"/>
      <point x="246" y="516"/>
      <point x="246" y="593" type="curve" smooth="yes"/>
      <point x="246" y="647"/>
      <point x="201" y="659"/>
      <point x="167" y="659" type="curve" smooth="yes"/>
      <point x="121" y="659"/>
      <point x="87" y="633"/>
      <point x="85" y="593" type="curve"/>
      <point x="19" y="593" type="line"/>
      <point x="22" y="684"/>
      <point x="109" y="706"/>
      <point x="165" y="706" type="curve" smooth="yes"/>
      <point x="264" y="706"/>
      <point x="312" y="651"/>
      <point x="312" y="594" type="curve" smooth="yes"/>
      <point x="312" y="560"/>
      <point x="291" y="511"/>
      <point x="222" y="497" type="curve"/>
      <point x="318" y="483"/>
      <point x="318" y="404"/>
      <point x="318" y="396" type="curve" smooth="yes"/>
      <point x="318" y="330"/>
      <point x="259" y="273"/>
      <point x="159" y="273" type="curve" smooth="yes"/>
      <point x="124" y="273"/>
      <point x="72" y="281"/>
      <point x="38" y="317" type="curve" smooth="yes"/>
      <point x="14" y="344"/>
      <point x="13" y="372"/>
    </contour>
  </outline>
</glyph>
<glyph name="questiondown" format="1">
  <advance width="500"/>
  <unicode hex="00BF"/>
  <outline>
    <contour>
      <point x="438" y="-123" type="curve"/>
      <point x="438" y="-213" type="line"/>
      <point x="413" y="-220"/>
      <point x="367" y="-234"/>
      <point x="296" y="-234" type="curve" smooth="yes"/>
      <point x="213" y="-234"/>
      <point x="149" y="-214"/>
      <point x="109" y="-172" type="curve" smooth="yes"/>
      <point x="80" y="-141"/>
      <point x="64" y="-98"/>
      <point x="64" y="-55" type="curve" smooth="yes"/>
      <point x="64" y="23"/>
      <point x="101" y="61"/>
      <point x="185" y="144" type="curve" smooth="yes"/>
      <point x="190" y="149"/>
      <point x="240" y="201"/>
      <point x="241" y="201" type="curve" smooth="yes"/>
      <point x="248" y="211"/>
      <point x="249" y="220"/>
      <point x="249" y="232" type="curve" smooth="yes"/>
      <point x="249" y="338" type="line"/>
      <point x="332" y="338" type="line"/>
      <point x="332" y="233" type="line" smooth="yes"/>
      <point x="332" y="193"/>
      <point x="332" y="187"/>
      <point x="280" y="132" type="curve" smooth="yes"/>
      <point x="204" y="50"/>
      <point x="167" y="11"/>
      <point x="167" y="-47" type="curve" smooth="yes"/>
      <point x="167" y="-149"/>
      <point x="277" y="-151"/>
      <point x="302" y="-151" type="curve" smooth="yes"/>
      <point x="316" y="-151"/>
      <point x="369" y="-151"/>
    </contour>
    <contour>
      <point x="340" y="502" type="line"/>
      <point x="340" y="400" type="line"/>
      <point x="236" y="400" type="line"/>
      <point x="236" y="502" type="line"/>
    </contour>
  </outline>
</glyph>
<glyph name="Ccedilla" format="1">
  <advance width="667"/>
  <unicode hex="00C7"/>
  <outline>
    <contour>
      <point x="518" y="190" type="curve"/>
      <point x="628" y="190" type="line"/>
      <point x="614" y="54"/>
      <point x="495" y="-4"/>
      <point x="381" y="-11" type="curve"/>
      <point x="347" y="-58" type="line"/>
      <point x="357" y="-56"/>
      <point x="369" y="-53"/>
      <point x="386" y="-53" type="curve" smooth="yes"/>
      <point x="444" y="-53"/>
      <point x="465" y="-94"/>
      <point x="465" y="-124" type="curve" smooth="yes"/>
      <point x="465" y="-132"/>
      <point x="463" y="-214"/>
      <point x="342" y="-214" type="curve" smooth="yes"/>
      <point x="294" y="-214"/>
      <point x="271" y="-204"/>
      <point x="248" y="-194" type="curve"/>
      <point x="268" y="-157" type="line"/>
      <point x="279" y="-163"/>
      <point x="299" y="-171"/>
      <point x="335" y="-171" type="curve" smooth="yes"/>
      <point x="369" y="-171"/>
      <point x="389" y="-157"/>
      <point x="389" y="-131" type="curve" smooth="yes"/>
      <point x="389" y="-96"/>
      <point x="354" y="-92"/>
      <point x="338" y="-92" type="curve" smooth="yes"/>
      <point x="323" y="-92"/>
      <point x="314" y="-95"/>
      <point x="301" y="-100" type="curve"/>
      <point x="286" y="-83" type="line"/>
      <point x="338" y="-11" type="line"/>
      <point x="119" y="-1"/>
      <point x="55" y="191"/>
      <point x="55" y="353" type="curve" smooth="yes"/>
      <point x="55" y="504"/>
      <point x="113" y="732"/>
      <point x="371" y="732" type="curve" smooth="yes"/>
      <point x="473" y="732"/>
      <point x="617" y="691"/>
      <point x="630" y="527" type="curve"/>
      <point x="523" y="527" type="line"/>
      <point x="519" y="552"/>
      <point x="506" y="652"/>
      <point x="367" y="652" type="curve" smooth="yes"/>
      <point x="193" y="652"/>
      <point x="162" y="474"/>
      <point x="162" y="354" type="curve" smooth="yes"/>
      <point x="162" y="218"/>
      <point x="201" y="71"/>
      <point x="366" y="71" type="curve" smooth="yes"/>
      <point x="410" y="71"/>
      <point x="452" y="82"/>
      <point x="483" y="114" type="curve" smooth="yes"/>
      <point x="509" y="142"/>
      <point x="515" y="173"/>
    </contour>
  </outline>
</glyph>
<glyph name="Ecircumflex" format="1">
  <advance width="611"/>
  <unicode hex="00CA"/>
  <outline>
    <contour>
      <point x="76" y="0" type="line"/>
      <point x="76" y="722" type="line"/>
      <point x="529" y="722" type="line"/>
      <point x="529" y="637" type="line"/>
      <point x="176" y="637" type="line"/>
      <point x="176" y="412" type="line"/>
      <point x="512" y="412" type="line"/>
      <point x="512" y="328" type="line"/>
      <point x="176" y="328" type="line"/>
      <point x="176" y="88" type="line"/>
      <point x="537" y="88" type="line"/>
      <point x="537" y="0" type="line"/>
    </contour>
    <contour>
      <point x="231" y="786" type="line"/>
      <point x="154" y="786" type="line"/>
      <point x="260" y="931" type="line"/>
      <point x="350" y="931" type="line"/>
      <point x="454" y="786" type="line"/>
      <point x="368" y="786" type="line"/>
      <point x="302" y="882" type="line"/>
    </contour>
  </outline>
</glyph>
<glyph name="Edieresis" format="1">
  <advance width="611"/>
  <unicode hex="00CB"/>
  <outline>
    <contour>
      <point x="76" y="0" type="line"/>
      <point x="76" y="722" type="line"/>
      <point x="529" y="722" type="line"/>
      <point x="529" y="637" type="line"/>
      <point x="176" y="637" type="line"/>
      <point x="176" y="412" type="line"/>
      <point x="512" y="412" type="line"/>
      <point x="512" y="328" type="line"/>
      <point x="176" y="328" type="line"/>
      <point x="176" y="88" type="line"/>
      <point x="537" y="88" type="line"/>
      <point x="537" y="0" type="line"/>
    </contour>
    <contour>
      <point x="164" y="797" type="line"/>
      <point x="164" y="899" type="line"/>
      <point x="256" y="899" type="line"/>
      <point x="256" y="797" type="line"/>
    </contour>
    <contour>
      <point x="353" y="797" type="line"/>
      <point x="353" y="899" type="line"/>
      <point x="446" y="899" type="line"/>
      <point x="446" y="797" type="line"/>
    </contour>
  </outline>
</glyph>
<glyph name="Iacute" format="1">
  <advance width="278"/>
  <unicode hex="00CD"/>
  <outline>
    <contour>
      <point x="88" y="0" type="line"/>
      <point x="88" y="722" type="line"/>
      <point x="188" y="722" type="line"/>
      <point x="188" y="0" type="line"/>
    </contour>
    <contour>
      <point x="162" y="930" type="line"/>
      <point x="266" y="930" type="line"/>
      <point x="145" y="786" type="line"/>
      <point x="80" y="786" type="line"/>
    </contour>
  </outline>
</glyph>
<glyph name="Icircumflex" format="1">
  <advance width="278"/>
  <unicode hex="00CE"/>
  <outline>
    <contour>
      <point x="88" y="0" type="line"/>
      <point x="88" y="722" type="line"/>
      <point x="188" y="722" type="line"/>
      <point x="188" y="0" type="line"/>
    </contour>
    <contour>
      <point x="64" y="786" type="line"/>
      <point x="-13" y="786" type="line"/>
      <point x="93" y="931" type="line"/>
      <point x="183" y="931" type="line"/>
      <point x="287" y="786" type="line"/>
      <point x="201" y="786" type="line"/>
      <point x="135" y="882" type="line"/>
    </contour>
  </outline>
</glyph>
<glyph name="Idieresis" format="1">
  <advance width="278"/>
  <unicode hex="00CF"/>
  <outline>
    <contour>
      <point x="88" y="0" type="line"/>
      <point x="88" y="722" type="line"/>
      <point x="188" y="722" type="line"/>
      <point x="188" y="0" type="line"/>
    </contour>
    <contour>
      <point x="-3" y="797" type="line"/>
      <point x="-3" y="899" type="line"/>
      <point x="89" y="899" type="line"/>
      <point x="89" y="797" type="line"/>
    </contour>
    <contour>
      <point x="186" y="797" type="line"/>
      <point x="186" y="899" type="line"/>
      <point x="279" y="899" type="line"/>
      <point x="279" y="797" type="line"/>
    </contour>
  </outline>
</glyph>
<glyph name="Ntilde" format="1">
  <advance width="778"/>
  <unicode hex="00D1"/>
  <outline>
    <contour>
      <point x="95" y="0" type="line"/>
      <point x="95" y="722" type="line"/>
      <point x="234" y="722" type="line"/>
      <point x="589" y="125" type="line"/>
      <point x="589" y="722" type="line"/>
      <point x="681" y="722" type="line"/>
      <point x="681" y="0" type="line"/>
      <point x="553" y="0" type="line"/>
      <point x="186" y="613" type="line"/>
      <point x="186" y="0" type="line"/>
    </contour>
    <contour>
      <point x="290" y="802" type="curve"/>
      <point x="248" y="802" type="line"/>
      <point x="249" y="830"/>
      <point x="258" y="855"/>
      <point x="272" y="872" type="curve" smooth="yes"/>
      <point x="287" y="890"/>
      <point x="308" y="900"/>
      <point x="333" y="900" type="curve" smooth="yes"/>
      <point x="348" y="900"/>
      <point x="355" y="898"/>
      <point x="410" y="883" type="curve" smooth="yes"/>
      <point x="425" y="879"/>
      <point x="435" y="876"/>
      <point x="447" y="876" type="curve" smooth="yes"/>
      <point x="471" y="876"/>
      <point x="484" y="891"/>
      <point x="484" y="913" type="curve"/>
      <point x="525" y="913" type="line"/>
      <point x="527" y="836"/>
      <point x="477" y="812"/>
      <point x="441" y="812" type="curve" smooth="yes"/>
      <point x="423" y="812"/>
      <point x="407" y="816"/>
      <point x="378" y="825" type="curve" smooth="yes"/>
      <point x="358" y="830"/>
      <point x="334" y="838"/>
      <point x="328" y="838" type="curve" smooth="yes"/>
      <point x="313" y="838"/>
      <point x="299" y="831"/>
    </contour>
  </outline>
</glyph>
<glyph name="Otilde" format="1">
  <advance width="778"/>
  <unicode hex="00D5"/>
  <outline>
    <contour>
      <point x="59" y="356" type="curve" smooth="yes"/>
      <point x="59" y="438"/>
      <point x="73" y="559"/>
      <point x="152" y="644" type="curve" smooth="yes"/>
      <point x="227" y="725"/>
      <point x="326" y="741"/>
      <point x="393" y="741" type="curve" smooth="yes"/>
      <point x="593" y="741"/>
      <point x="719" y="613"/>
      <point x="719" y="368" type="curve" smooth="yes"/>
      <point x="719" y="176"/>
      <point x="642" y="-17"/>
      <point x="385" y="-17" type="curve" smooth="yes"/>
      <point x="139" y="-17"/>
      <point x="59" y="158"/>
    </contour>
    <contour>
      <point x="164" y="362" type="curve" smooth="yes"/>
      <point x="164" y="283"/>
      <point x="178" y="196"/>
      <point x="228" y="134" type="curve" smooth="yes"/>
      <point x="269" y="83"/>
      <point x="331" y="68"/>
      <point x="388" y="68" type="curve" smooth="yes"/>
      <point x="447" y="68"/>
      <point x="506" y="84"/>
      <point x="548" y="134" type="curve" smooth="yes"/>
      <point x="607" y="206"/>
      <point x="613" y="320"/>
      <point x="613" y="369" type="curve" smooth="yes"/>
      <point x="613" y="533"/>
      <point x="559" y="657"/>
      <point x="394" y="657" type="curve" smooth="yes"/>
      <point x="211" y="657"/>
      <point x="164" y="510"/>
    </contour>
    <contour>
      <point x="290" y="802" type="curve"/>
      <point x="248" y="802" type="line"/>
      <point x="249" y="830"/>
      <point x="258" y="855"/>
      <point x="272" y="872" type="curve" smooth="yes"/>
      <point x="287" y="890"/>
      <point x="308" y="900"/>
      <point x="333" y="900" type="curve" smooth="yes"/>
      <point x="348" y="900"/>
      <point x="355" y="898"/>
      <point x="410" y="883" type="curve" smooth="yes"/>
      <point x="425" y="879"/>
      <point x="435" y="876"/>
      <point x="447" y="876" type="curve" smooth="yes"/>
      <point x="471" y="876"/>
      <point x="484" y="891"/>
      <point x="484" y="913" type="curve"/>
      <point x="525" y="913" type="line"/>
      <point x="527" y="836"/>
      <point x="477" y="812"/>
      <point x="441" y="812" type="curve" smooth="yes"/>
      <point x="423" y="812"/>
      <point x="407" y="816"/>
      <point x="378" y="825" type="curve" smooth="yes"/>
      <point x="358" y="830"/>
      <point x="334" y="838"/>
      <point x="328" y="838" type="curve" smooth="yes"/>
      <point x="313" y="838"/>
      <point x="299" y="831"/>
    </contour>
  </outline>
</glyph>
<glyph name="Oslash" format="1">
  <advance width="778"/>
  <unicode hex="00D8"/>
  <outline>
    <contour>
      <point x="638" y="799" type="line"/>
      <point x="700" y="799" type="line"/>
      <point x="614" y="663" type="line"/>
      <point x="698" y="586"/>
      <point x="719" y="469"/>
      <point x="719" y="363" type="curve" smooth="yes"/>
      <point x="719" y="201"/>
      <point x="657" y="-17"/>
      <point x="388" y="-17" type="curve" smooth="yes"/>
      <point x="290" y="-17"/>
      <point x="240" y="9"/>
      <point x="205" y="27" type="curve"/>
      <point x="131" y="-88" type="line"/>
      <point x="68" y="-88" type="line"/>
      <point x="163" y="59" type="line"/>
      <point x="130" y="92"/>
      <point x="59" y="164"/>
      <point x="59" y="358" type="curve" smooth="yes"/>
      <point x="59" y="441"/>
      <point x="74" y="566"/>
      <point x="157" y="651" type="curve" smooth="yes"/>
      <point x="218" y="713"/>
      <point x="304" y="741"/>
      <point x="391" y="741" type="curve" smooth="yes"/>
      <point x="491" y="741"/>
      <point x="544" y="711"/>
      <point x="571" y="695" type="curve"/>
    </contour>
    <contour>
      <point x="219" y="147" type="curve"/>
      <point x="523" y="619" type="line"/>
      <point x="506" y="633"/>
      <point x="472" y="657"/>
      <point x="391" y="657" type="curve" smooth="yes"/>
      <point x="210" y="657"/>
      <point x="164" y="506"/>
      <point x="164" y="361" type="curve" smooth="yes"/>
      <point x="164" y="286"/>
      <point x="175" y="209"/>
    </contour>
    <contour>
      <point x="559" y="579" type="curve"/>
      <point x="256" y="107" type="line"/>
      <point x="293" y="77"/>
      <point x="342" y="68"/>
      <point x="389" y="68" type="curve" smooth="yes"/>
      <point x="572" y="68"/>
      <point x="613" y="225"/>
      <point x="613" y="367" type="curve" smooth="yes"/>
      <point x="613" y="442"/>
      <point x="602" y="518"/>
    </contour>
  </outline>
</glyph>
<glyph name="Ugrave" format="1">
  <advance width="778"/>
  <unicode hex="00D9"/>
  <outline>
    <contour>
      <point x="93" y="722" type="line"/>
      <point x="193" y="722" type="line"/>
      <point x="193" y="275" type="line" smooth="yes"/>
      <point x="193" y="198"/>
      <point x="210" y="166"/>
      <point x="225" y="145" type="curve" smooth="yes"/>
      <point x="270" y="85"/>
      <point x="340" y="74"/>
      <point x="390" y="74" type="curve" smooth="yes"/>
      <point x="585" y="74"/>
      <point x="585" y="227"/>
      <point x="585" y="279" type="curve" smooth="yes"/>
      <point x="585" y="722" type="line"/>
      <point x="682" y="722" type="line"/>
      <point x="682" y="277" type="line" smooth="yes"/>
      <point x="682" y="238"/>
      <point x="681" y="157"/>
      <point x="623" y="85" type="curve" smooth="yes"/>
      <point x="552" y="-4"/>
      <point x="442" y="-15"/>
      <point x="390" y="-15" type="curve" smooth="yes"/>
      <point x="322" y="-15"/>
      <point x="202" y="4"/>
      <point x="135" y="100" type="curve" smooth="yes"/>
      <point x="113" y="132"/>
      <point x="93" y="174"/>
      <point x="93" y="282" type="curve" smooth="yes"/>
    </contour>
    <contour>
      <point x="252" y="930" type="line"/>
      <point x="365" y="930" type="line"/>
      <point x="449" y="786" type="line"/>
      <point x="387" y="786" type="line"/>
    </contour>
  </outline>
</glyph>
<glyph name="Ucircumflex" format="1">
  <advance width="778"/>
  <unicode hex="00DB"/>
  <outline>
    <contour>
      <point x="93" y="722" type="line"/>
      <point x="193" y="722" type="line"/>
      <point x="193" y="275" type="line" smooth="yes"/>
      <point x="193" y="198"/>
      <point x="210" y="166"/>
      <point x="225" y="145" type="curve" smooth="yes"/>
      <point x="270" y="85"/>
      <point x="340" y="74"/>
      <point x="390" y="74" type="curve" smooth="yes"/>
      <point x="585" y="74"/>
      <point x="585" y="227"/>
      <point x="585" y="279" type="curve" smooth="yes"/>
      <point x="585" y="722" type="line"/>
      <point x="682" y="722" type="line"/>
      <point x="682" y="277" type="line" smooth="yes"/>
      <point x="682" y="238"/>
      <point x="681" y="157"/>
      <point x="623" y="85" type="curve" smooth="yes"/>
      <point x="552" y="-4"/>
      <point x="442" y="-15"/>
      <point x="390" y="-15" type="curve" smooth="yes"/>
      <point x="322" y="-15"/>
      <point x="202" y="4"/>
      <point x="135" y="100" type="curve" smooth="yes"/>
      <point x="113" y="132"/>
      <point x="93" y="174"/>
      <point x="93" y="282" type="curve" smooth="yes"/>
    </contour>
    <contour>
      <point x="314" y="786" type="line"/>
      <point x="237" y="786" type="line"/>
      <point x="343" y="931" type="line"/>
      <point x="433" y="931" type="line"/>
      <point x="537" y="786" type="line"/>
      <point x="451" y="786" type="line"/>
      <point x="385" y="882" type="line"/>
    </contour>
  </outline>
</glyph>
<glyph name="germandbls" format="1">
  <advance width="667"/>
  <unicode hex="00DF"/>
  <outline>
    <contour>
      <point x="90" y="0" type="line"/>
      <point x="90" y="528" type="line" smooth="yes"/>
      <point x="90" y="610"/>
      <point x="105" y="735"/>
      <point x="319" y="735" type="curve" smooth="yes"/>
      <point x="414" y="735"/>
      <point x="531" y="703"/>
      <point x="531" y="586" type="curve" smooth="yes"/>
      <point x="531" y="537"/>
      <point x="512" y="511"/>
      <point x="477" y="485" type="curve" smooth="yes"/>
      <point x="422" y="443"/>
      <point x="408" y="432"/>
      <point x="408" y="404" type="curve" smooth="yes"/>
      <point x="408" y="386"/>
      <point x="419" y="371"/>
      <point x="434" y="361" type="curve" smooth="yes"/>
      <point x="521" y="304" type="line" smooth="yes"/>
      <point x="588" y="261"/>
      <point x="611" y="225"/>
      <point x="611" y="166" type="curve" smooth="yes"/>
      <point x="611" y="54"/>
      <point x="519" y="-9"/>
      <point x="415" y="-9" type="curve" smooth="yes"/>
      <point x="359" y="-9"/>
      <point x="290" y="6"/>
      <point x="263" y="71" type="curve" smooth="yes"/>
      <point x="251" y="101"/>
      <point x="251" y="124"/>
      <point x="251" y="144" type="curve"/>
      <point x="343" y="144" type="line"/>
      <point x="342" y="89"/>
      <point x="376" y="61"/>
      <point x="424" y="61" type="curve" smooth="yes"/>
      <point x="498" y="61"/>
      <point x="516" y="118"/>
      <point x="516" y="151" type="curve" smooth="yes"/>
      <point x="516" y="204"/>
      <point x="481" y="227"/>
      <point x="448" y="248" type="curve" smooth="yes"/>
      <point x="388" y="285" type="line" smooth="yes"/>
      <point x="337" y="316"/>
      <point x="312" y="347"/>
      <point x="312" y="391" type="curve" smooth="yes"/>
      <point x="312" y="448"/>
      <point x="350" y="476"/>
      <point x="395" y="510" type="curve" smooth="yes"/>
      <point x="422" y="530"/>
      <point x="439" y="543"/>
      <point x="439" y="579" type="curve" smooth="yes"/>
      <point x="439" y="629"/>
      <point x="402" y="671"/>
      <point x="315" y="671" type="curve" smooth="yes"/>
      <point x="221" y="671"/>
      <point x="184" y="630"/>
      <point x="184" y="525" type="curve" smooth="yes"/>
      <point x="184" y="0" type="line"/>
    </contour>
  </outline>
</glyph>
<glyph name="atilde" format="1">
  <advance width="556"/>
  <unicode hex="00E3"/>
  <outline>
    <contour>
      <point x="479" y="0" type="curve"/>
      <point x="394" y="0" type="line"/>
      <point x="387" y="25"/>
      <point x="385" y="49"/>
      <point x="385" y="75" type="curve"/>
      <point x="340" y="-8"/>
      <point x="272" y="-16"/>
      <point x="230" y="-16" type="curve" smooth="yes"/>
      <point x="115" y="-16"/>
      <point x="53" y="49"/>
      <point x="53" y="132" type="curve" smooth="yes"/>
      <point x="53" y="172"/>
      <point x="67" y="236"/>
      <point x="141" y="279" type="curve" smooth="yes"/>
      <point x="195" y="309"/>
      <point x="275" y="312"/>
      <point x="315" y="312" type="curve" smooth="yes"/>
      <point x="339" y="312"/>
      <point x="354" y="311"/>
      <point x="383" y="309" type="curve"/>
      <point x="383" y="371"/>
      <point x="383" y="398"/>
      <point x="365" y="420" type="curve" smooth="yes"/>
      <point x="346" y="445"/>
      <point x="305" y="453"/>
      <point x="278" y="453" type="curve" smooth="yes"/>
      <point x="183" y="453"/>
      <point x="178" y="388"/>
      <point x="177" y="368" type="curve"/>
      <point x="83" y="368" type="line"/>
      <point x="86" y="394"/>
      <point x="89" y="429"/>
      <point x="118" y="463" type="curve" smooth="yes"/>
      <point x="156" y="505"/>
      <point x="227" y="517"/>
      <point x="280" y="517" type="curve" smooth="yes"/>
      <point x="353" y="517"/>
      <point x="431" y="494"/>
      <point x="458" y="443" type="curve" smooth="yes"/>
      <point x="474" y="413"/>
      <point x="475" y="389"/>
      <point x="475" y="366" type="curve" smooth="yes"/>
      <point x="471" y="126" type="line" smooth="yes"/>
      <point x="471" y="118"/>
      <point x="472" y="51"/>
    </contour>
    <contour>
      <point x="383" y="244" type="curve"/>
      <point x="366" y="246"/>
      <point x="352" y="247"/>
      <point x="329" y="247" type="curve" smooth="yes"/>
      <point x="291" y="247"/>
      <point x="148" y="247"/>
      <point x="148" y="145" type="curve" smooth="yes"/>
      <point x="148" y="113"/>
      <point x="168" y="58"/>
      <point x="252" y="58" type="curve" smooth="yes"/>
      <point x="300" y="58"/>
      <point x="336" y="77"/>
      <point x="359" y="112" type="curve" smooth="yes"/>
      <point x="380" y="146"/>
      <point x="381" y="174"/>
    </contour>
    <contour>
      <point x="179" y="612" type="curve"/>
      <point x="137" y="612" type="line"/>
      <point x="138" y="640"/>
      <point x="147" y="665"/>
      <point x="161" y="682" type="curve" smooth="yes"/>
      <point x="176" y="700"/>
      <point x="197" y="710"/>
      <point x="222" y="710" type="curve" smooth="yes"/>
      <point x="237" y="710"/>
      <point x="244" y="708"/>
      <point x="299" y="693" type="curve" smooth="yes"/>
      <point x="314" y="689"/>
      <point x="324" y="686"/>
      <point x="336" y="686" type="curve" smooth="yes"/>
      <point x="360" y="686"/>
      <point x="373" y="701"/>
      <point x="373" y="723" type="curve"/>
      <point x="414" y="723" type="line"/>
      <point x="416" y="646"/>
      <point x="366" y="622"/>
      <point x="330" y="622" type="curve" smooth="yes"/>
      <point x="312" y="622"/>
      <point x="296" y="626"/>
      <point x="267" y="635" type="curve" smooth="yes"/>
      <point x="247" y="640"/>
      <point x="223" y="648"/>
      <point x="217" y="648" type="curve" smooth="yes"/>
      <point x="202" y="648"/>
      <point x="188" y="641"/>
    </contour>
  </outline>
</glyph>
<glyph name="ae" format="1">
  <advance width="889"/>
  <unicode hex="00E6"/>
  <outline>
    <contour>
      <point x="734" y="155" type="curve"/>
      <point x="830" y="155" type="line"/>
      <point x="810" y="7"/>
      <point x="691" y="-14"/>
      <point x="633" y="-14" type="curve" smooth="yes"/>
      <point x="612" y="-14"/>
      <point x="491" y="-14"/>
      <point x="444" y="104" type="curve"/>
      <point x="431" y="73"/>
      <point x="395" y="-13"/>
      <point x="249" y="-13" type="curve" smooth="yes"/>
      <point x="99" y="-13"/>
      <point x="50" y="73"/>
      <point x="50" y="144" type="curve" smooth="yes"/>
      <point x="50" y="213"/>
      <point x="96" y="283"/>
      <point x="202" y="300" type="curve" smooth="yes"/>
      <point x="248" y="307"/>
      <point x="301" y="308"/>
      <point x="334" y="308" type="curve" smooth="yes"/>
      <point x="356" y="308"/>
      <point x="381" y="307"/>
      <point x="400" y="307" type="curve"/>
      <point x="400" y="362"/>
      <point x="395" y="447"/>
      <point x="279" y="447" type="curve" smooth="yes"/>
      <point x="233" y="447"/>
      <point x="175" y="433"/>
      <point x="171" y="369" type="curve"/>
      <point x="78" y="369" type="line"/>
      <point x="80" y="392"/>
      <point x="84" y="445"/>
      <point x="137" y="479" type="curve" smooth="yes"/>
      <point x="161" y="495"/>
      <point x="201" y="514"/>
      <point x="274" y="514" type="curve" smooth="yes"/>
      <point x="402" y="514"/>
      <point x="439" y="454"/>
      <point x="453" y="410" type="curve"/>
      <point x="500" y="515"/>
      <point x="610" y="515"/>
      <point x="626" y="515" type="curve" smooth="yes"/>
      <point x="678" y="515"/>
      <point x="766" y="495"/>
      <point x="808" y="409" type="curve" smooth="yes"/>
      <point x="832" y="360"/>
      <point x="833" y="297"/>
      <point x="833" y="237" type="curve"/>
      <point x="486" y="237" type="line"/>
      <point x="487" y="208"/>
      <point x="489" y="157"/>
      <point x="510" y="121" type="curve" smooth="yes"/>
      <point x="535" y="75"/>
      <point x="580" y="54"/>
      <point x="623" y="54" type="curve" smooth="yes"/>
      <point x="706" y="54"/>
      <point x="733" y="115"/>
    </contour>
    <contour>
      <point x="488" y="304" type="curve"/>
      <point x="736" y="304" type="line"/>
      <point x="736" y="324"/>
      <point x="735" y="355"/>
      <point x="723" y="381" type="curve" smooth="yes"/>
      <point x="718" y="393"/>
      <point x="693" y="445"/>
      <point x="621" y="445" type="curve" smooth="yes"/>
      <point x="574" y="445"/>
      <point x="537" y="423"/>
      <point x="514" y="391" type="curve" smooth="yes"/>
      <point x="493" y="362"/>
      <point x="490" y="328"/>
    </contour>
    <contour>
      <point x="400" y="241" type="curve"/>
      <point x="379" y="241"/>
      <point x="325" y="242"/>
      <point x="281" y="240" type="curve" smooth="yes"/>
      <point x="253" y="238"/>
      <point x="142" y="233"/>
      <point x="142" y="142" type="curve" smooth="yes"/>
      <point x="142" y="77"/>
      <point x="205" y="54"/>
      <point x="256" y="54" type="curve" smooth="yes"/>
      <point x="320" y="54"/>
      <point x="357" y="89"/>
      <point x="375" y="118" type="curve" smooth="yes"/>
      <point x="400" y="157"/>
      <point x="400" y="205"/>
    </contour>
  </outline>
</glyph>
<glyph name="ccedilla" format="1">
  <advance width="500"/>
  <unicode hex="00E7"/>
  <outline>
    <contour>
      <point x="378" y="167" type="curve"/>
      <point x="473" y="167" type="line"/>
      <point x="468" y="73"/>
      <point x="401" y="-5"/>
      <point x="286" y="-12" type="curve"/>
      <point x="253" y="-58" type="line"/>
      <point x="263" y="-56"/>
      <point x="275" y="-53"/>
      <point x="292" y="-53" type="curve" smooth="yes"/>
      <point x="351" y="-53"/>
      <point x="371" y="-94"/>
      <point x="371" y="-124" type="curve" smooth="yes"/>
      <point x="371" y="-132"/>
      <point x="370" y="-214"/>
      <point x="248" y="-214" type="curve" smooth="yes"/>
      <point x="201" y="-214"/>
      <point x="177" y="-204"/>
      <point x="155" y="-194" type="curve"/>
      <point x="174" y="-157" type="line"/>
      <point x="186" y="-163"/>
      <point x="205" y="-171"/>
      <point x="241" y="-171" type="curve" smooth="yes"/>
      <point x="275" y="-171"/>
      <point x="295" y="-157"/>
      <point x="295" y="-131" type="curve" smooth="yes"/>
      <point x="295" y="-96"/>
      <point x="260" y="-92"/>
      <point x="244" y="-92" type="curve" smooth="yes"/>
      <point x="230" y="-92"/>
      <point x="221" y="-95"/>
      <point x="208" y="-100" type="curve"/>
      <point x="193" y="-83" type="line"/>
      <point x="244" y="-12" type="line"/>
      <point x="88" y="6"/>
      <point x="45" y="123"/>
      <point x="45" y="240" type="curve" smooth="yes"/>
      <point x="45" y="463"/>
      <point x="181" y="515"/>
      <point x="273" y="515" type="curve" smooth="yes"/>
      <point x="306" y="515"/>
      <point x="381" y="508"/>
      <point x="427" y="453" type="curve" smooth="yes"/>
      <point x="464" y="410"/>
      <point x="467" y="369"/>
      <point x="469" y="341" type="curve"/>
      <point x="374" y="341" type="line"/>
      <point x="372" y="364"/>
      <point x="365" y="446"/>
      <point x="274" y="446" type="curve" smooth="yes"/>
      <point x="144" y="446"/>
      <point x="144" y="295"/>
      <point x="144" y="257" type="curve" smooth="yes"/>
      <point x="144" y="154"/>
      <point x="169" y="58"/>
      <point x="269" y="58" type="curve" smooth="yes"/>
      <point x="349" y="58"/>
      <point x="376" y="118"/>
    </contour>
  </outline>
</glyph>
<glyph name="iacute" format="1">
  <advance width="278"/>
  <unicode hex="00ED"/>
  <outline>
    <contour>
      <point x="93" y="0" type="line"/>
      <point x="93" y="502" type="line"/>
      <point x="183" y="502" type="line"/>
      <point x="183" y="0" type="line"/>
    </contour>
    <contour>
      <point x="162" y="740" type="line"/>
      <point x="266" y="740" type="line"/>
      <point x="145" y="596" type="line"/>
      <point x="80" y="596" type="line"/>
    </contour>
  </outline>
</glyph>
<glyph name="icircumflex" format="1">
  <advance width="278"/>
  <unicode hex="00EE"/>
  <outline>
    <contour>
      <point x="93" y="0" type="line"/>
      <point x="93" y="502" type="line"/>
      <point x="183" y="502" type="line"/>
      <point x="183" y="0" type="line"/>
    </contour>
    <contour>
      <point x="64" y="596" type="line"/>
      <point x="-13" y="596" type="line"/>
      <point x="93" y="741" type="line"/>
      <point x="183" y="741" type="line"/>
      <point x="287" y="596" type="line"/>
      <point x="201" y="596" type="line"/>
      <point x="135" y="692" type="line"/>
    </contour>
  </outline>
</glyph>
<glyph name="idieresis" format="1">
  <advance width="278"/>
  <unicode hex="00EF"/>
  <outline>
    <contour>
      <point x="93" y="0" type="line"/>
      <point x="93" y="502" type="line"/>
      <point x="183" y="502" type="line"/>
      <point x="183" y="0" type="line"/>
    </contour>
    <contour>
      <point x="-3" y="617" type="line"/>
      <point x="-3" y="719" type="line"/>
      <point x="89" y="719" type="line"/>
      <point x="89" y="617" type="line"/>
    </contour>
    <contour>
      <point x="186" y="617" type="line"/>
      <point x="186" y="719" type="line"/>
      <point x="279" y="719" type="line"/>
      <point x="279" y="617" type="line"/>
    </contour>
  </outline>
</glyph>
<glyph name="ntilde" format="1">
  <advance width="611"/>
  <unicode hex="00F1"/>
  <outline>
    <contour>
      <point x="91" y="0" type="line"/>
      <point x="91" y="444" type="line"/>
      <point x="90" y="502" type="line"/>
      <point x="184" y="502" type="line"/>
      <point x="185" y="421" type="line"/>
      <point x="196" y="442"/>
      <point x="232" y="512"/>
      <point x="346" y="512" type="curve" smooth="yes"/>
      <point x="391" y="512"/>
      <point x="528" y="495"/>
      <point x="528" y="341" type="curve" smooth="yes"/>
      <point x="528" y="0" type="line"/>
      <point x="432" y="0" type="line"/>
      <point x="432" y="319" type="line" smooth="yes"/>
      <point x="432" y="352"/>
      <point x="428" y="382"/>
      <point x="405" y="405" type="curve" smooth="yes"/>
      <point x="381" y="428"/>
      <point x="348" y="439"/>
      <point x="316" y="439" type="curve" smooth="yes"/>
      <point x="248" y="439"/>
      <point x="185" y="390"/>
      <point x="185" y="289" type="curve" smooth="yes"/>
      <point x="185" y="0" type="line"/>
    </contour>
    <contour>
      <point x="207" y="612" type="curve"/>
      <point x="165" y="612" type="line"/>
      <point x="166" y="640"/>
      <point x="175" y="665"/>
      <point x="189" y="682" type="curve" smooth="yes"/>
      <point x="204" y="700"/>
      <point x="225" y="710"/>
      <point x="250" y="710" type="curve" smooth="yes"/>
      <point x="265" y="710"/>
      <point x="272" y="708"/>
      <point x="327" y="693" type="curve" smooth="yes"/>
      <point x="342" y="689"/>
      <point x="352" y="686"/>
      <point x="364" y="686" type="curve" smooth="yes"/>
      <point x="388" y="686"/>
      <point x="401" y="701"/>
      <point x="401" y="723" type="curve"/>
      <point x="442" y="723" type="line"/>
      <point x="444" y="646"/>
      <point x="394" y="622"/>
      <point x="358" y="622" type="curve" smooth="yes"/>
      <point x="340" y="622"/>
      <point x="324" y="626"/>
      <point x="295" y="635" type="curve" smooth="yes"/>
      <point x="275" y="640"/>
      <point x="251" y="648"/>
      <point x="245" y="648" type="curve" smooth="yes"/>
      <point x="230" y="648"/>
      <point x="216" y="641"/>
    </contour>
  </outline>
</glyph>
<glyph name="otilde" format="1">
  <advance width="611"/>
  <unicode hex="00F5"/>
  <outline>
    <contour>
      <point x="51" y="245" type="curve" smooth="yes"/>
      <point x="51" y="369"/>
      <point x="109" y="515"/>
      <point x="306" y="515" type="curve" smooth="yes"/>
      <point x="507" y="515"/>
      <point x="552" y="357"/>
      <point x="552" y="252" type="curve" smooth="yes"/>
      <point x="552" y="105"/>
      <point x="469" y="-17"/>
      <point x="298" y="-17" type="curve" smooth="yes"/>
      <point x="132" y="-17"/>
      <point x="51" y="98"/>
    </contour>
    <contour>
      <point x="149" y="251" type="curve" smooth="yes"/>
      <point x="149" y="148"/>
      <point x="193" y="53"/>
      <point x="300" y="53" type="curve" smooth="yes"/>
      <point x="371" y="53"/>
      <point x="452" y="104"/>
      <point x="452" y="255" type="curve" smooth="yes"/>
      <point x="452" y="380"/>
      <point x="394" y="446"/>
      <point x="306" y="446" type="curve" smooth="yes"/>
      <point x="246" y="446"/>
      <point x="149" y="408"/>
    </contour>
    <contour>
      <point x="207" y="612" type="curve"/>
      <point x="165" y="612" type="line"/>
      <point x="166" y="640"/>
      <point x="175" y="665"/>
      <point x="189" y="682" type="curve" smooth="yes"/>
      <point x="204" y="700"/>
      <point x="225" y="710"/>
      <point x="250" y="710" type="curve" smooth="yes"/>
      <point x="265" y="710"/>
      <point x="272" y="708"/>
      <point x="327" y="693" type="curve" smooth="yes"/>
      <point x="342" y="689"/>
      <point x="352" y="686"/>
      <point x="364" y="686" type="curve" smooth="yes"/>
      <point x="388" y="686"/>
      <point x="401" y="701"/>
      <point x="401" y="723" type="curve"/>
      <point x="442" y="723" type="line"/>
      <point x="444" y="646"/>
      <point x="394" y="622"/>
      <point x="358" y="622" type="curve" smooth="yes"/>
      <point x="340" y="622"/>
      <point x="324" y="626"/>
      <point x="295" y="635" type="curve" smooth="yes"/>
      <point x="275" y="640"/>
      <point x="251" y="648"/>
      <point x="245" y="648" type="curve" smooth="yes"/>
      <point x="230" y="648"/>
      <point x="216" y="641"/>
    </contour>
  </outline>
</glyph>
<glyph name="odieresis" format="1">
  <advance width="611"/>
  <unicode hex="00F6"/>
  <outline>
    <contour>
      <point x="51" y="245" type="curve" smooth="yes"/>
      <point x="51" y="369"/>
      <point x="109" y="515"/>
      <point x="306" y="515" type="curve" smooth="yes"/>
      <point x="507" y="515"/>
      <point x="552" y="357"/>
      <point x="552" y="252" type="curve" smooth="yes"/>
      <point x="552" y="105"/>
      <point x="469" y="-17"/>
      <point x="298" y="-17" type="curve" smooth="yes"/>
      <point x="132" y="-17"/>
      <point x="51" y="98"/>
    </contour>
    <contour>
      <point x="149" y="251" type="curve" smooth="yes"/>
      <point x="149" y="148"/>
      <point x="193" y="53"/>
      <point x="300" y="53" type="curve" smooth="yes"/>
      <point x="371" y="53"/>
      <point x="452" y="104"/>
      <point x="452" y="255" type="curve" smooth="yes"/>
      <point x="452" y="380"/>
      <point x="394" y="446"/>
      <point x="306" y="446" type="curve" smooth="yes"/>
      <point x="246" y="446"/>
      <point x="149" y="408"/>
    </contour>
    <contour>
      <point x="164" y="617" type="line"/>
      <point x="164" y="719" type="line"/>
      <point x="256" y="719" type="line"/>
      <point x="256" y="617" type="line"/>
    </contour>
    <contour>
      <point x="353" y="617" type="line"/>
      <point x="353" y="719" type="line"/>
      <point x="446" y="719" type="line"/>
      <point x="446" y="617" type="line"/>
    </contour>
  </outline>
</glyph>
<glyph name="oslash" format="1">
  <advance width="611"/>
  <unicode hex="00F8"/>
  <outline>
    <contour>
      <point x="477" y="597" type="line"/>
      <point x="537" y="597" type="line"/>
      <point x="460" y="468" type="line"/>
      <point x="535" y="409"/>
      <point x="552" y="322"/>
      <point x="552" y="251" type="curve" smooth="yes"/>
      <point x="552" y="105"/>
      <point x="468" y="-17"/>
      <point x="298" y="-17" type="curve" smooth="yes"/>
      <point x="253" y="-17"/>
      <point x="214" y="-9"/>
      <point x="185" y="5" type="curve"/>
      <point x="120" y="-104" type="line"/>
      <point x="61" y="-104" type="line"/>
      <point x="141" y="31" type="line"/>
      <point x="116" y="52"/>
      <point x="51" y="106"/>
      <point x="51" y="248" type="curve" smooth="yes"/>
      <point x="51" y="394"/>
      <point x="133" y="515"/>
      <point x="299" y="515" type="curve" smooth="yes"/>
      <point x="339" y="515"/>
      <point x="379" y="508"/>
      <point x="416" y="494" type="curve"/>
    </contour>
    <contour>
      <point x="187" y="109" type="curve"/>
      <point x="377" y="428" type="line"/>
      <point x="353" y="440"/>
      <point x="330" y="446"/>
      <point x="303" y="446" type="curve" smooth="yes"/>
      <point x="194" y="446"/>
      <point x="149" y="346"/>
      <point x="149" y="252" type="curve" smooth="yes"/>
      <point x="149" y="208"/>
      <point x="159" y="149"/>
    </contour>
    <contour>
      <point x="415" y="393" type="curve"/>
      <point x="225" y="73" type="line"/>
      <point x="236" y="67"/>
      <point x="260" y="53"/>
      <point x="300" y="53" type="curve" smooth="yes"/>
      <point x="379" y="53"/>
      <point x="452" y="115"/>
      <point x="452" y="250" type="curve" smooth="yes"/>
      <point x="452" y="301"/>
      <point x="445" y="352"/>
    </contour>
  </outline>
</glyph>
<glyph name="ydieresis" format="1">
  <advance width="556"/>
  <unicode hex="00FF"/>
  <outline>
    <contour>
      <point x="537" y="502" type="line"/>
      <point x="314" y="-3" type="line"/>
      <point x="242" y="-190" type="line"/>
      <point x="145" y="-190" type="line"/>
      <point x="221" y="2" type="line"/>
      <point x="12" y="502" type="line"/>
      <point x="118" y="502" type="line"/>
      <point x="275" y="106" type="line"/>
      <point x="435" y="502" type="line"/>
    </contour>
    <contour>
      <point x="136" y="617" type="line"/>
      <point x="136" y="719" type="line"/>
      <point x="228" y="719" type="line"/>
      <point x="228" y="617" type="line"/>
    </contour>
    <contour>
      <point x="325" y="617" type="line"/>
      <point x="325" y="719" type="line"/>
      <point x="418" y="719" type="line"/>
      <point x="418" y="617" type="line"/>
    </contour>
  </outline>
</glyph>
<glyph name="Lslash" format="1">
  <advance width="556"/>
  <unicode hex="0141"/>
  <outline>
    <contour>
      <point x="93" y="0" type="line"/>
      <point x="93" y="304" type="line"/>
      <point x="19" y="258" type="line"/>
      <point x="19" y="332" type="line"/>
      <point x="93" y="377" type="line"/>
      <point x="93" y="722" type="line"/>
      <point x="192" y="722" type="line"/>
      <point x="192" y="439" type="line"/>
      <point x="385" y="559" type="line"/>
      <point x="385" y="486" type="line"/>
      <point x="192" y="366" type="line"/>
      <point x="192" y="89" type="line"/>
      <point x="528" y="89" type="line"/>
      <point x="528" y="0" type="line"/>
    </contour>
  </outline>
</glyph>
<glyph name="zcaron" format="1">
  <advance width="444"/>
  <unicode hex="017E"/>
  <outline>
    <contour>
      <point x="30" y="0" type="line"/>
      <point x="30" y="97" type="line"/>
      <point x="298" y="431" type="line"/>
      <point x="44" y="431" type="line"/>
      <point x="44" y="502" type="line"/>
      <point x="405" y="502" type="line"/>
      <point x="405" y="422" type="line"/>
      <point x="128" y="73" type="line"/>
      <point x="405" y="73" type="line"/>
      <point x="405" y="0" type="line"/>
    </contour>
    <contour>
      <point x="173" y="596" type="line"/>
      <point x="69" y="739" type="line"/>
      <point x="155" y="739" type="line"/>
      <point x="222" y="643" type="line"/>
      <point x="291" y="739" type="line"/>
      <point x="370" y="739" type="line"/>
      <point x="266" y="596" type="line"/>
    </contour>
  </outline>
</glyph>
<glyph name="florin" format="1">
  <advance width="556"/>
  <unicode hex="0192"/>
  <outline>
    <contour>
      <point x="137" y="417" type="line"/>
      <point x="228" y="417" type="line"/>
      <point x="251" y="527" type="line" smooth="yes"/>
      <point x="261" y="575"/>
      <point x="272" y="618"/>
      <point x="303" y="646" type="curve" smooth="yes"/>
      <point x="337" y="676"/>
      <point x="385" y="684"/>
      <point x="417" y="684" type="curve" smooth="yes"/>
      <point x="435" y="684"/>
      <point x="449" y="682"/>
      <point x="471" y="678" type="curve"/>
      <point x="460" y="608" type="line"/>
      <point x="451" y="609"/>
      <point x="438" y="611"/>
      <point x="425" y="611" type="curve" smooth="yes"/>
      <point x="366" y="611"/>
      <point x="346" y="567"/>
      <point x="338" y="525" type="curve" smooth="yes"/>
      <point x="315" y="417" type="line"/>
      <point x="420" y="417" type="line"/>
      <point x="406" y="350" type="line"/>
      <point x="303" y="350" type="line"/>
      <point x="242" y="25" type="line" smooth="yes"/>
      <point x="214" y="-124"/>
      <point x="197" y="-206"/>
      <point x="34" y="-197" type="curve"/>
      <point x="46" y="-125" type="line"/>
      <point x="51" y="-126"/>
      <point x="55" y="-127"/>
      <point x="62" y="-127" type="curve" smooth="yes"/>
      <point x="93" y="-127"/>
      <point x="112" y="-110"/>
      <point x="119" y="-98" type="curve" smooth="yes"/>
      <point x="130" y="-79"/>
      <point x="134" y="-59"/>
      <point x="157" y="49" type="curve" smooth="yes"/>
      <point x="215" y="350" type="line"/>
      <point x="125" y="350" type="line"/>
    </contour>
  </outline>
</glyph>
<glyph name="circumflex" format="1">
  <advance width="278"/>
  <unicode hex="02C6"/>
  <outline>
    <contour>
      <point x="64" y="596" type="line"/>
      <point x="-13" y="596" type="line"/>
      <point x="93" y="741" type="line"/>
      <point x="183" y="741" type="line"/>
      <point x="287" y="596" type="line"/>
      <point x="201" y="596" type="line"/>
      <point x="135" y="692" type="line"/>
    </contour>
  </outline>
</glyph>
<glyph name="caron" format="1">
  <advance width="278"/>
  <unicode hex="02C7"/>
  <outline>
    <contour>
      <point x="90" y="596" type="line"/>
      <point x="-14" y="739" type="line"/>
      <point x="72" y="739" type="line"/>
      <point x="139" y="643" type="line"/>
      <point x="208" y="739" type="line"/>
      <point x="287" y="739" type="line"/>
      <point x="183" y="596" type="line"/>
    </contour>
  </outline>
</glyph>
<glyph name="breve" format="1">
  <advance width="278"/>
  <unicode hex="02D8"/>
  <outline>
    <contour>
      <point x="2" y="751" type="curve"/>
      <point x="49" y="751" type="line"/>
      <point x="51" y="694"/>
      <point x="77" y="657"/>
      <point x="137" y="657" type="curve" smooth="yes"/>
      <point x="222" y="657"/>
      <point x="228" y="732"/>
      <point x="229" y="751" type="curve"/>
      <point x="276" y="751" type="line"/>
      <point x="279" y="649"/>
      <point x="230" y="594"/>
      <point x="137" y="594" type="curve" smooth="yes"/>
      <point x="3" y="594"/>
      <point x="2" y="713"/>
    </contour>
  </outline>
</glyph>
<glyph name="ring" format="1">
  <advance width="278"/>
  <unicode hex="02DA"/>
  <outline>
    <contour>
      <point x="41" y="669" type="curve" smooth="yes"/>
      <point x="41" y="723"/>
      <point x="85" y="767"/>
      <point x="139" y="767" type="curve" smooth="yes"/>
      <point x="193" y="767"/>
      <point x="237" y="723"/>
      <point x="237" y="669" type="curve" smooth="yes"/>
      <point x="237" y="615"/>
      <point x="193" y="571"/>
      <point x="139" y="571" type="curve" smooth="yes"/>
      <point x="85" y="571"/>
      <point x="41" y="615"/>
    </contour>
    <contour>
      <point x="81" y="669" type="curve" smooth="yes"/>
      <point x="81" y="637"/>
      <point x="107" y="611"/>
      <point x="139" y="611" type="curve" smooth="yes"/>
      <point x="171" y="611"/>
      <point x="197" y="637"/>
      <point x="197" y="669" type="curve" smooth="yes"/>
      <point x="197" y="701"/>
      <point x="171" y="727"/>
      <point x="139" y="727" type="curve" smooth="yes"/>
      <point x="107" y="727"/>
      <point x="81" y="701"/>
    </contour>
  </outline>
</glyph>
<glyph name="tilde" format="1">
  <advance width="278"/>
  <unicode hex="02DC"/>
  <outline>
    <contour>
      <point x="40" y="612" type="curve"/>
      <point x="-2" y="612" type="line"/>
      <point x="-1" y="640"/>
      <point x="8" y="665"/>
      <point x="22" y="682" type="curve" smooth="yes"/>
      <point x="37" y="700"/>
      <point x="58" y="710"/>
      <point x="83" y="710" type="curve" smooth="yes"/>
      <point x="98" y="710"/>
      <point x="105" y="708"/>
      <point x="160" y="693" type="curve" smooth="yes"/>
      <point x="175" y="689"/>
      <point x="185" y="686"/>
      <point x="197" y="686" type="curve" smooth="yes"/>
      <point x="221" y="686"/>
      <point x="234" y="701"/>
      <point x="234" y="723" type="curve"/>
      <point x="275" y="723" type="line"/>
      <point x="277" y="646"/>
      <point x="227" y="622"/>
      <point x="191" y="622" type="curve" smooth="yes"/>
      <point x="173" y="622"/>
      <point x="157" y="626"/>
      <point x="128" y="635" type="curve" smooth="yes"/>
      <point x="108" y="640"/>
      <point x="84" y="648"/>
      <point x="78" y="648" type="curve" smooth="yes"/>
      <point x="63" y="648"/>
      <point x="49" y="641"/>
    </contour>
  </outline>
</glyph>
<glyph name="hungarumlaut" format="1">
  <advance width="400"/>
  <unicode hex="02DD"/>
  <outline>
    <contour>
      <point x="192" y="740" type="line"/>
      <point x="71" y="596" type="line"/>
      <point x="6" y="596" type="line"/>
      <point x="88" y="740" type="line"/>
    </contour>
    <contour>
      <point x="351" y="740" type="line"/>
      <point x="230" y="596" type="line"/>
      <point x="165" y="596" type="line"/>
      <point x="247" y="740" type="line"/>
    </contour>
  </outline>
</glyph>
<glyph name="pi" format="1">
  <advance width="576"/>
  <unicode hex="03C0"/>
  <outline>
    <contour>
      <point x="550" y="444" type="line"/>
      <point x="472" y="444" type="line"/>
      <point x="472" y="147" type="line" smooth="yes"/>
      <point x="472" y="66"/>
      <point x="479" y="28"/>
      <point x="486" y="0" type="curve"/>
      <point x="403" y="0" type="line"/>
      <point x="393" y="17"/>
      <point x="386" y="61"/>
      <point x="386" y="141" type="curve" smooth="yes"/>
      <point x="386" y="444" type="line"/>
      <point x="214" y="444" type="line"/>
      <point x="209" y="320"/>
      <point x="180" y="96"/>
      <point x="143" y="0" type="curve"/>
      <point x="59" y="0" type="line"/>
      <point x="96" y="109"/>
      <point x="125" y="316"/>
      <point x="129" y="444" type="curve"/>
      <point x="70" y="444"/>
      <point x="41" y="439"/>
      <point x="20" y="432" type="curve"/>
      <point x="8" y="489" type="line"/>
      <point x="33" y="505"/>
      <point x="77" y="517"/>
      <point x="156" y="517" type="curve" smooth="yes"/>
      <point x="558" y="517" type="line"/>
    </contour>
  </outline>
</glyph>
<glyph name="quotesinglbase" format="1">
  <advance width="278"/>
  <unicode hex="201A"/>
  <outline>
    <contour>
      <point x="111" y="100" type="line"/>
      <point x="226" y="100" type="line"/>
      <point x="116" y="-135" type="line"/>
      <point x="49" y="-135" type="line"/>
    </contour>
  </outline>
</glyph>
<glyph name="ellipsis" format="1">
  <advance width="1000"/>
  <unicode hex="2026"/>
  <outline>
    <contour>
      <point x="126" y="0" type="line"/>
      <point x="126" y="120" type="line"/>
      <point x="237" y="120" type="line"/>
      <point x="237" y="0" type="line"/>
    </contour>
    <contour>
      <point x="445" y="0" type="line"/>
      <point x="445" y="120" type="line"/>
      <point x="556" y="120" type="line"/>
      <point x="556" y="0" type="line"/>
    </contour>
    <contour>
      <point x="764" y="0" type="line"/>
      <point x="764" y="120" type="line"/>
      <point x="875" y="120" type="line"/>
      <point x="875" y="0" type="line"/>
    </contour>
  </outline>
</glyph>
<glyph name="perthousand" format="1">
  <advance width="1000"/>
  <unicode hex="2030"/>
  <outline>
    <contour>
      <point x="301" y="545" type="curve" smooth="yes"/>
      <point x="301" y="455"/>
      <point x="266" y="370"/>
      <point x="152" y="370" type="curve" smooth="yes"/>
      <point x="53" y="370"/>
      <point x="9" y="435"/>
      <point x="9" y="534" type="curve" smooth="yes"/>
      <point x="9" y="565"/>
      <point x="9" y="712"/>
      <point x="156" y="712" type="curve" smooth="yes"/>
      <point x="257" y="712"/>
      <point x="301" y="644"/>
    </contour>
    <contour>
      <point x="155" y="427" type="curve" smooth="yes"/>
      <point x="218" y="427"/>
      <point x="227" y="497"/>
      <point x="227" y="544" type="curve" smooth="yes"/>
      <point x="227" y="599"/>
      <point x="214" y="656"/>
      <point x="156" y="656" type="curve" smooth="yes"/>
      <point x="88" y="656"/>
      <point x="82" y="582"/>
      <point x="82" y="538" type="curve" smooth="yes"/>
      <point x="82" y="496"/>
      <point x="89" y="427"/>
    </contour>
    <contour>
      <point x="638" y="163" type="curve" smooth="yes"/>
      <point x="638" y="73"/>
      <point x="603" y="-12"/>
      <point x="489" y="-12" type="curve" smooth="yes"/>
      <point x="390" y="-12"/>
      <point x="346" y="53"/>
      <point x="346" y="152" type="curve" smooth="yes"/>
      <point x="346" y="182"/>
      <point x="346" y="330"/>
      <point x="493" y="330" type="curve" smooth="yes"/>
      <point x="593" y="330"/>
      <point x="638" y="262"/>
    </contour>
    <contour>
      <point x="492" y="45" type="curve" smooth="yes"/>
      <point x="555" y="45"/>
      <point x="564" y="115"/>
      <point x="564" y="162" type="curve" smooth="yes"/>
      <point x="564" y="217"/>
      <point x="550" y="274"/>
      <point x="492" y="274" type="curve" smooth="yes"/>
      <point x="425" y="274"/>
      <point x="418" y="200"/>
      <point x="418" y="156" type="curve" smooth="yes"/>
      <point x="418" y="113"/>
      <point x="425" y="45"/>
    </contour>
    <contour>
      <point x="985" y="163" type="curve" smooth="yes"/>
      <point x="985" y="73"/>
      <point x="950" y="-12"/>
      <point x="836" y="-12" type="curve" smooth="yes"/>
      <point x="737" y="-12"/>
      <point x="693" y="53"/>
      <point x="693" y="152" type="curve" smooth="yes"/>
      <point x="693" y="182"/>
      <point x="693" y="330"/>
      <point x="840" y="330" type="curve" smooth="yes"/>
      <point x="941" y="330"/>
      <point x="985" y="262"/>
    </contour>
    <contour>
      <point x="839" y="45" type="curve" smooth="yes"/>
      <point x="902" y="45"/>
      <point x="911" y="115"/>
      <point x="911" y="162" type="curve" smooth="yes"/>
      <point x="911" y="217"/>
      <point x="898" y="274"/>
      <point x="840" y="274" type="curve" smooth="yes"/>
      <point x="772" y="274"/>
      <point x="766" y="200"/>
      <point x="766" y="156" type="curve" smooth="yes"/>
      <point x="766" y="113"/>
      <point x="773" y="45"/>
    </contour>
    <contour>
      <point x="519" y="731" type="line"/>
      <point x="582" y="731" type="line"/>
      <point x="110" y="-37" type="line"/>
      <point x="48" y="-37" type="line"/>
    </contour>
  </outline>
</glyph>
<glyph name="guilsinglleft" format="1">
  <advance width="278"/>
  <unicode hex="2039"/>
  <outline>
    <contour>
      <point x="240" y="53" type="line"/>
      <point x="160" y="53" type="line"/>
      <point x="49" y="249" type="line"/>
      <point x="160" y="443" type="line"/>
      <point x="238" y="443" type="line"/>
      <point x="141" y="249" type="line"/>
    </contour>
  </outline>
</glyph>
<glyph name="fraction" format="1">
  <advance width="167"/>
  <unicode hex="2044"/>
  <outline>
    <contour>
      <point x="-168" y="-28" type="line"/>
      <point x="262" y="715" type="line"/>
      <point x="326" y="715" type="line"/>
      <point x="-103" y="-28" type="line"/>
    </contour>
  </outline>
</glyph>
<glyph name="Euro" format="1">
  <advance width="556"/>
  <unicode hex="20AC"/>
  <outline>
    <contour>
      <point x="5" y="234" type="line"/>
      <point x="25" y="301" type="line"/>
      <point x="75" y="301" type="line"/>
      <point x="74" y="316"/>
      <point x="73" y="330"/>
      <point x="73" y="345" type="curve" smooth="yes"/>
      <point x="73" y="353"/>
      <point x="75" y="362"/>
      <point x="75" y="370" type="curve"/>
      <point x="5" y="370" type="line"/>
      <point x="25" y="437" type="line"/>
      <point x="82" y="437" type="line"/>
      <point x="106" y="592"/>
      <point x="198" y="701"/>
      <point x="339" y="701" type="curve" smooth="yes"/>
      <point x="450" y="701"/>
      <point x="545" y="635"/>
      <point x="548" y="498" type="curve"/>
      <point x="458" y="498" type="line"/>
      <point x="454" y="618"/>
      <point x="359" y="625"/>
      <point x="339" y="625" type="curve" smooth="yes"/>
      <point x="258" y="625"/>
      <point x="195" y="545"/>
      <point x="176" y="437" type="curve"/>
      <point x="407" y="437" type="line"/>
      <point x="387" y="370" type="line"/>
      <point x="169" y="370" type="line"/>
      <point x="169" y="363"/>
      <point x="168" y="356"/>
      <point x="168" y="349" type="curve" smooth="yes"/>
      <point x="168" y="333"/>
      <point x="169" y="317"/>
      <point x="170" y="301" type="curve"/>
      <point x="375" y="301" type="line"/>
      <point x="355" y="234" type="line"/>
      <point x="177" y="234" type="line"/>
      <point x="195" y="138"/>
      <point x="242" y="63"/>
      <point x="333" y="63" type="curve" smooth="yes"/>
      <point x="406" y="63"/>
      <point x="456" y="108"/>
      <point x="458" y="183" type="curve"/>
      <point x="549" y="183" type="line"/>
      <point x="549" y="180" type="line" smooth="yes"/>
      <point x="549" y="122"/>
      <point x="511" y="-13"/>
      <point x="335" y="-13" type="curve" smooth="yes"/>
      <point x="187" y="-13"/>
      <point x="106" y="83"/>
      <point x="83" y="234" type="curve"/>
    </contour>
  </outline>
</glyph>
<glyph name="afii61289" format="1">
  <advance width="491"/>
  <unicode hex="2113"/>
  <outline>
    <contour>
      <point x="429" y="155" type="curve"/>
      <point x="468" y="119" type="line"/>
      <point x="422" y="31"/>
      <point x="355" y="-10"/>
      <point x="277" y="-10" type="curve" smooth="yes"/>
      <point x="162" y="-10"/>
      <point x="115" y="74"/>
      <point x="109" y="169" type="curve"/>
      <point x="109" y="182" type="line"/>
      <point x="91" y="168"/>
      <point x="72" y="151"/>
      <point x="53" y="136" type="curve"/>
      <point x="28" y="185" type="line"/>
      <point x="56" y="209"/>
      <point x="84" y="230"/>
      <point x="108" y="254" type="curve"/>
      <point x="108" y="521" type="line" smooth="yes"/>
      <point x="108" y="701"/>
      <point x="187" y="763"/>
      <point x="267" y="763" type="curve" smooth="yes"/>
      <point x="354" y="763"/>
      <point x="394" y="689"/>
      <point x="394" y="598" type="curve" smooth="yes"/>
      <point x="394" y="474"/>
      <point x="313" y="357"/>
      <point x="190" y="237" type="curve"/>
      <point x="190" y="203" type="line" smooth="yes"/>
      <point x="191" y="102"/>
      <point x="240" y="59"/>
      <point x="295" y="59" type="curve" smooth="yes"/>
      <point x="356" y="59"/>
      <point x="404" y="110"/>
    </contour>
    <contour>
      <point x="190" y="526" type="curve" smooth="yes"/>
      <point x="190" y="320" type="line"/>
      <point x="273" y="411"/>
      <point x="336" y="506"/>
      <point x="336" y="598" type="curve" smooth="yes"/>
      <point x="336" y="658"/>
      <point x="318" y="699"/>
      <point x="268" y="699" type="curve" smooth="yes"/>
      <point x="233" y="699"/>
      <point x="190" y="657"/>
    </contour>
  </outline>
</glyph>
<glyph name="partialdiff" format="1">
  <advance width="552"/>
  <unicode hex="2202"/>
  <outline>
    <contour>
      <point x="102" y="658" type="curve"/>
      <point x="74" y="722" type="line"/>
      <point x="106" y="747"/>
      <point x="160" y="777"/>
      <point x="244" y="777" type="curve" smooth="yes"/>
      <point x="377" y="777"/>
      <point x="501" y="655"/>
      <point x="501" y="401" type="curve" smooth="yes"/>
      <point x="501" y="166"/>
      <point x="409" y="-10"/>
      <point x="237" y="-10" type="curve" smooth="yes"/>
      <point x="104" y="-10"/>
      <point x="41" y="110"/>
      <point x="41" y="221" type="curve" smooth="yes"/>
      <point x="41" y="377"/>
      <point x="140" y="476"/>
      <point x="254" y="476" type="curve" smooth="yes"/>
      <point x="344" y="476"/>
      <point x="400" y="413"/>
      <point x="415" y="384" type="curve"/>
      <point x="416" y="384" type="line"/>
      <point x="417" y="395"/>
      <point x="417" y="414"/>
      <point x="417" y="425" type="curve" smooth="yes"/>
      <point x="417" y="589"/>
      <point x="336" y="706"/>
      <point x="234" y="706" type="curve" smooth="yes"/>
      <point x="173" y="706"/>
      <point x="129" y="680"/>
    </contour>
    <contour>
      <point x="244" y="62" type="curve" smooth="yes"/>
      <point x="245" y="62" type="line" smooth="yes"/>
      <point x="336" y="62"/>
      <point x="394" y="180"/>
      <point x="407" y="303" type="curve"/>
      <point x="393" y="344"/>
      <point x="343" y="406"/>
      <point x="269" y="406" type="curve" smooth="yes"/>
      <point x="190" y="406"/>
      <point x="127" y="322"/>
      <point x="127" y="220" type="curve" smooth="yes"/>
      <point x="127" y="130"/>
      <point x="173" y="62"/>
    </contour>
  </outline>
</glyph>
<glyph name="minus" format="1">
  <advance width="584"/>
  <unicode hex="2212"/>
  <outline>
    <contour>
      <point x="37" y="212" type="line"/>
      <point x="37" y="290" type="line"/>
      <point x="547" y="290" type="line"/>
      <point x="547" y="212" type="line"/>
    </contour>
  </outline>
</glyph>
<glyph name="integral" format="1">
  <advance width="364"/>
  <unicode hex="222B"/>
  <outline>
    <contour>
      <point x="347" y="837" type="curve"/>
      <point x="334" y="777" type="line"/>
      <point x="326" y="782"/>
      <point x="311" y="787"/>
      <point x="298" y="787" type="curve" smooth="yes"/>
      <point x="281" y="787"/>
      <point x="261" y="780"/>
      <point x="247" y="763" type="curve" smooth="yes"/>
      <point x="223" y="734"/>
      <point x="215" y="679"/>
      <point x="215" y="588" type="curve" smooth="yes"/>
      <point x="215" y="431"/>
      <point x="229" y="259"/>
      <point x="229" y="93" type="curve" smooth="yes"/>
      <point x="229" y="-10"/>
      <point x="210" y="-71"/>
      <point x="188" y="-107" type="curve" smooth="yes"/>
      <point x="165" y="-145"/>
      <point x="123" y="-162"/>
      <point x="82" y="-162" type="curve" smooth="yes"/>
      <point x="55" y="-162"/>
      <point x="27" y="-154"/>
      <point x="15" y="-146" type="curve"/>
      <point x="28" y="-84" type="line"/>
      <point x="37" y="-88"/>
      <point x="53" y="-96"/>
      <point x="73" y="-96" type="curve" smooth="yes"/>
      <point x="90" y="-96"/>
      <point x="107" y="-89"/>
      <point x="119" y="-74" type="curve" smooth="yes"/>
      <point x="138" y="-49"/>
      <point x="151" y="-5"/>
      <point x="151" y="94" type="curve" smooth="yes"/>
      <point x="151" y="261"/>
      <point x="138" y="436"/>
      <point x="138" y="596" type="curve" smooth="yes"/>
      <point x="138" y="706"/>
      <point x="152" y="768"/>
      <point x="192" y="810" type="curve" smooth="yes"/>
      <point x="218" y="837"/>
      <point x="255" y="850"/>
      <point x="291" y="850" type="curve" smooth="yes"/>
      <point x="313" y="850"/>
      <point x="336" y="843"/>
    </contour>
  </outline>
</glyph>
<glyph name="three.superior" format="1">
  <advance width="333"/>
  <outline>
    <contour>
      <point x="12" y="390" type="curve"/>
      <point x="80" y="390" type="line"/>
      <point x="80" y="346"/>
      <point x="113" y="322"/>
      <point x="165" y="322" type="curve" smooth="yes"/>
      <point x="226" y="322"/>
      <point x="253" y="360"/>
      <point x="253" y="397" type="curve" smooth="yes"/>
      <point x="253" y="478"/>
      <point x="157" y="474"/>
      <point x="126" y="472" type="curve"/>
      <point x="126" y="521" type="line"/>
      <point x="145" y="519"/>
      <point x="246" y="516"/>
      <point x="246" y="593" type="curve" smooth="yes"/>
      <point x="246" y="647"/>
      <point x="200" y="659"/>
      <point x="167" y="659" type="curve" smooth="yes"/>
      <point x="121" y="659"/>
      <point x="87" y="633"/>
      <point x="85" y="593" type="curve"/>
      <point x="19" y="593" type="line"/>
      <point x="22" y="684"/>
      <point x="108" y="706"/>
      <point x="165" y="706" type="curve" smooth="yes"/>
      <point x="264" y="706"/>
      <point x="312" y="651"/>
      <point x="312" y="594" type="curve" smooth="yes"/>
      <point x="312" y="560"/>
      <point x="291" y="511"/>
      <point x="222" y="497" type="curve"/>
      <point x="318" y="483"/>
      <point x="318" y="404"/>
      <point x="318" y="396" type="curve" smooth="yes"/>
      <point x="318" y="330"/>
      <point x="259" y="273"/>
      <point x="159" y="273" type="curve" smooth="yes"/>
      <point x="123" y="273"/>
      <point x="71" y="281"/>
      <point x="38" y="317" type="curve" smooth="yes"/>
      <point x="13" y="344"/>
      <point x="13" y="372"/>
    </contour>
  </outline>
</glyph>
<glyph name="two.superior" format="1">
  <advance width="333"/>
  <outline>
    <contour>
      <point x="24" y="284" type="line"/>
      <point x="24" y="338" type="line"/>
      <point x="141" y="445" type="line" smooth="yes"/>
      <point x="228" y="523"/>
      <point x="244" y="555"/>
      <point x="244" y="591" type="curve" smooth="yes"/>
      <point x="244" y="634"/>
      <point x="214" y="658"/>
      <point x="171" y="658" type="curve" smooth="yes"/>
      <point x="100" y="658"/>
      <point x="99" y="599"/>
      <point x="98" y="586" type="curve"/>
      <point x="30" y="586" type="line"/>
      <point x="35" y="692"/>
      <point x="126" y="706"/>
      <point x="169" y="706" type="curve" smooth="yes"/>
      <point x="248" y="706"/>
      <point x="309" y="667"/>
      <point x="309" y="586" type="curve" smooth="yes"/>
      <point x="309" y="561"/>
      <point x="305" y="536"/>
      <point x="259" y="483" type="curve" smooth="yes"/>
      <point x="245" y="467"/>
      <point x="189" y="413"/>
      <point x="174" y="400" type="curve" smooth="yes"/>
      <point x="96" y="331" type="line"/>
      <point x="310" y="331" type="line"/>
      <point x="310" y="284" type="line"/>
    </contour>
  </outline>
</glyph>
